<?xml version="1.0" encoding="UTF-8"?>
<svg id="Layer_1" data-name="Layer 1" xmlns="http://www.w3.org/2000/svg" xmlns:xlink="http://www.w3.org/1999/xlink" viewBox="0 0 2731 2229.78">
  <defs>
    <style>
      .cls-1 {
        fill-rule: evenodd;
      }

      .cls-1, .cls-2 {
        fill: #006daa;
      }

      .cls-3 {
        fill: url(#linear-gradient-2);
      }

      .cls-4 {
        fill: url(#linear-gradient-17);
      }

      .cls-5 {
        fill: url(#linear-gradient-15);
      }

      .cls-6 {
        fill: url(#linear-gradient-18);
      }

      .cls-7 {
        fill: url(#linear-gradient-14);
      }

      .cls-8 {
        fill: url(#linear-gradient-6);
      }

      .cls-9 {
        fill: url(#linear-gradient-11);
      }

      .cls-10 {
        fill: url(#linear-gradient-10);
      }

      .cls-11 {
        fill: url(#linear-gradient-16);
      }

      .cls-12 {
        fill: url(#linear-gradient-5);
      }

      .cls-13 {
        fill: url(#linear-gradient-7);
      }

      .cls-14 {
        fill: url(#linear-gradient-9);
      }

      .cls-15 {
        fill: url(#linear-gradient-3);
      }

      .cls-16 {
        fill: url(#linear-gradient);
      }

      .cls-17 {
        fill: #0f7ac1;
      }

      .cls-18 {
        fill: url(#linear-gradient-4);
      }

      .cls-19 {
        fill: url(#linear-gradient-8);
      }

      .cls-20 {
        fill: url(#linear-gradient-12);
      }

      .cls-21 {
        fill: url(#linear-gradient-13);
      }
    </style>
    <linearGradient id="linear-gradient" x1="0" y1="1114.89" x2="2731" y2="1114.89" gradientUnits="userSpaceOnUse">
      <stop offset="0" stop-color="#7e41f3"/>
      <stop offset=".49" stop-color="#5f50f5"/>
      <stop offset="1" stop-color="#2d69fa"/>
    </linearGradient>
    <linearGradient id="linear-gradient-2" x1="1494.82" y1="28" x2="-88.92" y2="1388.67" gradientUnits="userSpaceOnUse">
      <stop offset="0" stop-color="#1277c5"/>
      <stop offset=".35" stop-color="#2b95aa"/>
      <stop offset=".67" stop-color="#39a79b"/>
      <stop offset="1" stop-color="#4cbf86"/>
    </linearGradient>
    <linearGradient id="linear-gradient-3" x1="1413.73" y1="-66.39" x2="-170.01" y2="1294.29" xlink:href="#linear-gradient-2"/>
    <linearGradient id="linear-gradient-4" x1="1650.54" y1="209.25" x2="66.8" y2="1569.92" xlink:href="#linear-gradient-2"/>
    <linearGradient id="linear-gradient-5" x1="2158.67" y1="800.68" x2="574.93" y2="2161.35" gradientUnits="userSpaceOnUse">
      <stop offset="0" stop-color="#1277c5"/>
      <stop offset=".35" stop-color="#2b95aa"/>
      <stop offset="1" stop-color="#4cbf86"/>
    </linearGradient>
    <linearGradient id="linear-gradient-6" x1="1807.47" y1="391.91" x2="223.73" y2="1752.58" xlink:href="#linear-gradient-2"/>
    <linearGradient id="linear-gradient-7" x1="2393.85" y1="1074.41" x2="810.11" y2="2435.09" xlink:href="#linear-gradient-2"/>
    <linearGradient id="linear-gradient-8" x1="2531.81" y1="1234.99" x2="948.07" y2="2595.66" xlink:href="#linear-gradient-2"/>
    <linearGradient id="linear-gradient-9" x1="2435.03" y1="1122.34" x2="851.29" y2="2483.02" xlink:href="#linear-gradient-2"/>
    <linearGradient id="linear-gradient-10" x1="1955.03" y1="563.65" x2="371.29" y2="1924.33" xlink:href="#linear-gradient-2"/>
    <linearGradient id="linear-gradient-11" x1="2002.81" y1="1029.15" x2="987.88" y2="1980.88" gradientUnits="userSpaceOnUse">
      <stop offset="0" stop-color="#1277c5"/>
      <stop offset="1" stop-color="#4cbf86"/>
    </linearGradient>
    <linearGradient id="linear-gradient-12" x1="1296.12" y1="275.53" x2="281.19" y2="1227.26" xlink:href="#linear-gradient-11"/>
    <linearGradient id="linear-gradient-13" x1="1460.75" y1="451.1" x2="445.82" y2="1402.82" xlink:href="#linear-gradient-11"/>
    <linearGradient id="linear-gradient-14" x1="1828.91" y1="843.7" x2="813.98" y2="1795.43" xlink:href="#linear-gradient-11"/>
    <linearGradient id="linear-gradient-15" x1="1696.54" y1="702.55" x2="681.61" y2="1654.28" xlink:href="#linear-gradient-11"/>
    <linearGradient id="linear-gradient-16" x1="1593.56" y1="592.72" x2="578.63" y2="1544.45" xlink:href="#linear-gradient-11"/>
    <linearGradient id="linear-gradient-17" x1="1340.94" y1="323.32" x2="326.01" y2="1275.05" xlink:href="#linear-gradient-11"/>
    <linearGradient id="linear-gradient-18" x1="1958.2" y1="981.58" x2="943.27" y2="1933.31" xlink:href="#linear-gradient-11"/>
  </defs>
  <g>
    <g id="Outer_C" data-name="Outer C">
      <path class="cls-16" d="m1582.48,355.34c-1.3,2.05-2.8,3.97-4.08,6.03-10.75,17.15-21.49,34.31-32.2,51.48-12.43,19.94-24.82,39.89-37.2,59.84-3.41,5.51-6.72,11.07-10,16.66-2.93,4.98-4.71,5.69-9.77,2.89-5.2-2.85-10.23-6.02-15.31-9.08-20.82-12.57-42.54-23.43-64.64-33.54-26.02-11.92-52.64-22.38-79.84-31.26-25.41-8.3-51.05-15.8-77.23-21.21-18.48-3.82-36.98-7.67-55.81-9.64-8.05-.84-16.02-2.38-24.08-3.15-39.82-3.87-79.74-4.84-119.73-3.26-9.71.38-19.39.97-29.1,1.41-2.67.11-5.34.02-8.92.02-2.02-17.05-3.41-33.12-4.39-48.72-1.93-2.57-4.23-2.26-6.3-2.05-7.51.79-15.02,1.66-22.51,2.61-39.67,5.07-78.76,13.12-117.23,24.07-47.1,13.43-92.59,31.03-136.51,52.66-29.79,14.67-58.67,31.03-86.48,49.25-26.9,17.62-52.62,36.79-77.4,57.31-32.72,27.12-62.69,57-90.97,88.66-19.25,21.56-37.05,44.33-53.61,68.02-16.08,23-31.3,46.61-44.79,71.26-1.3,2.36-2.38,4.84-3.62,7.23-1.43,2.77-2.93,3.64-5.9,2.71-3.07-.97-6.07-2.28-8.9-3.79-8.57-4.56-17.05-9.31-25.59-13.95-17.3-9.43-34.59-18.87-51.92-28.25-3.56-1.93-7.26-3.59-10.8-5.52-2.56-1.39-3.33-3.38-2.44-6.1.49-1.52,1.26-2.98,2.07-4.36,11.48-19.56,22.69-39.28,35.28-58.17,13.18-19.75,26.49-39.43,41.28-58.03,12.26-15.43,24.38-30.98,37.31-45.84,23.05-26.49,47.67-51.48,73.51-75.31,37.8-34.87,78.4-66.12,121.27-94.43,38.82-25.64,79.43-48.15,121.66-67.54,50.36-23.12,102.4-41.8,156.14-55.56,35.85-9.2,72.05-16.53,108.76-21.49,22.48-3.03,45.07-4.66,67.67-6.43,34.25-2.69,68.51-2.26,102.79-1.05,10.51.38,21,1.51,31.49,2.31,7.26.56,14.56.9,21.79,1.77,16.08,1.89,32.17,3.75,48.18,6.16,45.71,6.85,90.51,17.67,134.68,31.31,34.35,10.59,67.94,23.18,100.77,37.67,35.35,15.61,69.58,33.43,102.72,53.28,2.79,1.67,5.67,3.16,8.36,4.95,3.48,2.28,3.85,4.52,1.54,8.2Z"/>
      <path class="cls-16" d="m1012.67,151.76c.08,1.03-.28,2.08-.44,3.18-2.72,1.84-5.72,1.92-8.62,2.21-8.07.84-16.15,1.39-24.2,2.31-7.49.87-14.98,1.97-22.44,3.15-27.2,4.26-54.21,9.52-81.04,15.8-40.54,9.49-80.05,22.3-118.95,37-36.9,13.95-72.61,30.57-107.43,49.13-18.12,9.66-35.95,19.77-53.38,30.61-27.98,17.38-55.36,35.72-81.12,56.31-18.54,14.84-37.2,29.61-54.99,45.33-21.25,18.75-41.44,38.67-60.72,59.49-31.61,34.15-60.81,70.22-87.43,108.33-18.39,26.36-35.33,53.64-51.03,81.71-14.1,25.23-26.61,51.23-38.89,77.38-1.48,3.16-2.93,6.54-5.25,9.07-6.54,7.16-10.3,15.8-13.71,24.59-11.54,29.71-22.28,59.67-30.94,90.36-8.36,29.61-15.75,59.46-21.28,89.76-4.59,25.25-8.28,50.61-11.07,76.1-4.66,42.76-5.9,85.63-4.97,128.61.56,26.21,2.51,52.33,5.39,78.36,4.54,40.8,11.57,81.2,21.33,121.12,7.57,30.97,16.61,61.48,27.1,91.58.18.51.38,1,.54,1.52,1.57,5,1.1,6.23-3.62,8.03-5.05,1.92-10.16,3.62-15.26,5.41-16.54,5.82-33.08,11.62-49.62,17.48-10.67,3.79-21.35,7.64-31.98,11.52-4.82,1.77-9.57,3.66-14.33,5.59-3.28,1.34-6.52,2.49-10.46,1.46-.64-1.34-1.49-2.7-1.98-4.18-10.64-32.03-20.82-64.2-28.9-96.97-6.26-25.43-11.77-51-16.28-76.82-4.31-24.74-8.02-49.58-10.64-74.54-2.39-22.8-3.62-45.74-4.92-68.66-2.31-41.03-.77-82.07,1.51-123.05,1.44-25.9,4.39-51.66,8.05-77.31,7.84-55.15,19.43-109.48,35.39-162.86,12.31-41.15,26.76-81.54,44-120.91,4.43-10.13,8.51-20.43,12.84-30.61.59-1.39,1.72-2.57,2.61-3.87,3.69.18,6.49,1.8,9.39,3.21,13.34,6.48,26.71,12.97,40.07,19.41,1.71.82,3.43,1.64,5.23,2.18,2.67.82,4.74-.07,6.2-2.48.56-.9.98-1.92,1.36-2.92,6.23-16.48,14.9-31.74,23.36-47.12,15.61-28.39,32.3-56.17,50.43-83.04,18.89-27.98,39.07-55.03,60.69-80.99,22.64-27.2,46.38-53.4,71.74-78.12,37.97-37,78.33-71.13,121.3-102.22,19.03-13.77,38.66-26.64,58.51-39.2,37.48-23.72,76.54-44.46,116.82-62.97,27.72-12.75,56.02-24.08,84.72-34.39,38.67-13.89,78.08-25.2,118.15-34.17,34.25-7.67,68.72-14.16,103.71-17.62,7.51-.75,15-1.8,22.51-2.61,2.08-.21,4.18-.03,6.49-.03.39,1.34.85,2.33.93,3.34,1.89,22.31,3.72,44.64,5.51,66.97Z"/>
      <path class="cls-16" d="m2065.77,558c-.57.52-1.26,1.38-2.15,1.89-14.49,8.34-29.05,16.61-43.54,24.97-19.87,11.46-39.71,22.97-59.54,34.49-3.03,1.75-5.89,3.85-8.98,5.49-4.05,2.13-6.44,1.49-8.85-2.39-4.11-6.66-7.98-13.46-12.07-20.15-20.43-33.46-43.38-65.15-67.72-95.84-30.12-37.94-63.41-72.9-98.68-106.05-30.36-28.54-62.74-54.59-96.66-78.67-35.92-25.48-73.3-48.62-112.36-69.1-31.12-16.3-62.95-31-95.61-43.8-29.13-11.43-58.61-21.98-88.84-30.23-13.54-3.69-27-7.69-40.62-10.97-23.36-5.61-46.9-10.41-70.63-14.15-24.79-3.89-49.67-6.93-74.74-8.93-34.49-2.77-68.99-3.85-103.56-3.54-1.61.02-3.21-.18-5.33-.31-.51-1.34-1-2.07-1.02-2.8-1.18-44-2.33-87.99-3.44-131.99-.05-1.56.25-3.15.44-5.15,1.74-.3,3.25-.77,4.75-.75,18.9.16,37.82-.02,56.69.69,31.03,1.15,62.05,2.64,92.92,6.21,28.41,3.31,56.76,7.16,84.84,12.75,24.61,4.9,49.07,10.41,73.38,16.72,26.13,6.79,51.92,14.72,77.48,23.33,29.43,9.9,58.26,21.34,86.76,33.69,43.43,18.8,85.22,40.72,125.97,64.67,27.49,16.15,53.99,33.84,79.67,52.69,17.2,12.61,34.41,25.23,51,38.61,34.28,27.66,66.69,57.4,97.33,89.08,28.74,29.74,55.82,60.87,81.1,93.61,21.82,28.21,42.46,57.23,61.15,87.61,6.08,9.89,12.2,19.75,18.25,29.64,1.54,2.52,3.08,5.11,2.61,8.69Z"/>
      <path class="cls-16" d="m1572.95,2124.92c-1,.72-1.97,1.67-3.11,2.16-21.39,9-42.62,18.41-64.26,26.76-21.13,8.15-42.53,15.71-64.12,22.59-21.84,6.97-43.92,13.25-66.1,19.02-19.31,5.03-38.84,9.26-58.41,13.23-16.9,3.44-33.92,6.48-51,8.84-23.53,3.26-47.05,6.44-70.77,8.13-21.28,1.52-42.54,2.95-63.85,3.67-21.61.74-43.18.54-64.79-.28-26.44-1-52.85-2.48-79.17-5.3-25.75-2.74-51.41-6.26-76.97-10.67-23.67-4.08-47.18-8.93-70.48-14.75-21.18-5.3-42.2-11.33-63.22-17.33-11.66-3.33-23.25-6.98-34.72-10.93-13.77-4.74-27.46-9.75-41.05-14.97-41.87-16.07-82.59-34.69-122.14-55.82-34.07-18.21-67.17-38.02-99.17-59.69-26.62-18.02-52.54-37-77.49-57.25-44.92-36.46-87.1-75.87-125.91-118.84-19.18-21.26-37.33-43.36-55.05-65.84-18.25-23.13-35-47.31-51.49-71.67-4.38-6.48-8.3-13.26-12.28-20-2.41-4.07-1.75-6.1,2.31-8.64,12.15-7.57,24.28-15.13,36.41-22.69.46-.3.92-.56,1.39-.82,3.95-2.11,5.61-1.69,8.02,2.08,4.21,6.59,8.25,13.31,12.67,19.77,10.69,15.57,21.28,31.23,32.43,46.46,27.77,37.97,57.84,74.04,90.86,107.56,18,18.28,35.76,36.84,55.18,53.61,20.03,17.28,40.05,34.57,61.13,50.61,40.66,30.94,83,59.31,127.58,84.28,22.13,12.41,44.61,24.18,67.81,34.53,5.67,2.52,11.15,5.46,16.74,8.16,5,2.43,6.77,1.8,8.79-3.05,4.64-11.21,9.31-22.41,13.9-33.66,1.21-2.98,2.11-6.1,3.3-9.11.56-1.46,1.43-2.79,1.98-3.84,3.11-1,5.28.39,7.43,1.38,38.67,17.57,78.84,30.98,119.53,42.89,20.71,6.07,41.64,11.25,62.72,15.93,18.48,4.08,37.05,7.41,55.66,10.56,37.03,6.25,74.38,9.57,111.89,11.56,40.8,2.15,81.51.92,122.22-1.79,32.64-2.16,64.94-6.69,97.15-12.18,61.92-10.56,122.14-27.26,180.91-49.35,22.23-8.34,44.25-17.25,65.59-27.71,1.39-.69,2.97-1.03,4.82-1.66,1.16,1.71,2.43,3.11,3.18,4.75,8.2,17.61,16.31,35.25,24.46,52.89,5.33,11.51,10.69,23,16.03,34.51,1.71,3.67,3.25,7.39,3.48,11.9Z"/>
      <path class="cls-16" d="m943.24,1952.1c-6.51,35.28-13.05,70.56-19.64,105.82-.13.72-.79,1.36-1.33,2.25-3.46.48-6.89-.2-10.3-.89-23.28-4.64-46.44-9.87-69.3-16.31-25.44-7.16-50.8-14.71-75.45-24.35-17.84-6.98-35.66-14.03-53.26-21.54-30.08-12.8-59.03-27.92-87.38-44.18-24.84-14.25-48.89-29.77-72.33-46.18-22.77-15.95-44.69-33.07-65.9-51.07-32.79-27.84-63.53-57.79-92.07-89.9-22.61-25.43-43.98-51.89-63.43-79.87-1.38-1.98-3-3.82-4.36-5.82-1.92-2.82-1.52-4.79,1.43-6.82,5.34-3.66,10.75-7.23,16.15-10.8,5.85-3.89,11.72-7.72,17.57-11.59,1.13-.74,2.3-1.44,3.33-2.3,1.97-1.61,2.38-3.38,1.2-5.74-.84-1.69-1.87-3.3-2.93-4.84-23.75-33.92-44.13-69.82-62.28-106.97-20.18-41.3-36.8-84-50.2-127.99-6.93-22.75-12.97-45.71-18.03-68.9-8.77-40.13-14.49-80.71-17.66-121.69-2.15-27.79-2.8-55.54-2.33-83.36.44-25.66,2.89-51.2,5.48-76.72,4.56-44.97,13.49-89.1,25-132.74,10.95-41.59,25.57-81.9,42.53-121.38,1.61-3.72,2.89-7.59,4.59-11.25,1.61-3.49,3.43-4.07,7.23-2.84,1.28.43,2.56.9,3.77,1.46,14.46,6.64,28.94,13.3,43.38,19.97,4.36,2.03,5.28,4.36,3.21,9.16-2.87,6.69-6.03,13.25-8.92,19.94-11.48,26.54-21.31,53.69-29.41,81.43-9.38,32.13-17.44,64.62-22.54,97.76-2.98,19.46-5.64,38.98-7.92,58.56-1.25,10.71-1.2,21.56-2.07,32.31-1.57,19.41-1.77,38.85-1.33,58.28.31,13.21,1.1,26.43,1.97,39.62.95,14.26,1.95,28.53,3.9,42.72,2.49,18.18,5.18,36.33,8.61,54.36,7.61,40.12,18.74,79.26,32.15,117.81,12.97,37.28,29.02,73.23,47.33,108.18,16.18,30.9,34.39,60.53,54.62,88.94,5,7.05,9.53,14.34,13.49,22.08,3.16,6.2,7.2,12.07,11.54,17.54,21.48,27.12,44.41,52.95,69.3,77.02,34.62,33.48,71.76,63.87,111.61,90.97,31.53,21.43,64.38,40.59,98.58,57.41,27.87,13.69,56.46,25.67,85.76,36.07,39,13.82,78.9,24.16,119.38,32.51,2.31.48,4.57,1.31,6.52,1.87.39,1.02.82,1.56.74,2Z"/>
      <path class="cls-16" d="m2006.23,1350.31v.02c-3.98,18-8.49,35.89-13.49,53.69-17.41,62.08-41.3,121.55-71.12,178.66-12.12,23.21-24.97,46.03-39.07,68.1-26.07,40.77-54.89,79.51-86.76,115.94-17.08,19.53-34.69,38.54-53.49,56.4-14.89,14.12-29.8,28.21-45.77,41.13-13.23,10.67-26.25,21.66-39.94,31.71-20.02,14.67-40.25,29.12-60.99,42.76-17.33,11.43-35.43,21.67-53.69,31.61-18.26,9.95-36.61,19.67-55.48,28.39-42.43,19.62-85.97,36.33-130.82,49.53-27.18,8-54.61,15.1-82.41,20.49-18,3.49-36.03,7.02-54.33,8.9-8.57.89-17.1,2.38-25.67,3.43-7.75.97-15.53,1.95-23.33,2.51-15.07,1.08-30.15,1.9-45.25,2.72-2.07.11-4.18-.34-6.34-.56-.39-1.43-.92-2.44-.92-3.46-.05-14.25-.03-28.49-.03-43.28,2.11-.28,4.16-.69,6.23-.8,17.23-1.05,34.53-1.46,51.69-3.2,23.89-2.41,47.66-5.85,71.31-10.12,55.95-10.03,110.46-25.21,163.51-45.51,36.59-13.98,72-30.54,106.43-49.3,23.49-12.8,46.41-26.48,68.64-41.33,8.52-5.71,17.03-11.43,25.48-17.26,4.64-3.2,4.93-6.2,1.39-10.85-7.36-9.67-14.72-19.31-22.05-29-.64-.82-.98-1.87-1.61-3.07.93-1.33,1.66-2.8,2.79-3.85,1.77-1.64,3.8-3.02,5.75-4.46,34.9-25.66,67-54.49,97.12-85.58,27.64-28.53,53.23-58.81,76.58-91,33.23-45.8,61.77-94.33,85.27-145.84,14.25-31.21,26.87-63.07,37.17-95.79,1.13-3.57,2.23-7.16,3.3-10.75,13.66-2.1,26-9.31,34.07-20.16,6.15-8.28,9.08-18.03,8.69-28.97-.56-15.92-8.26-28.98-21.85-37.31.67-3.77,1.33-7.54,1.95-11.33.15-.87.28-1.74.41-2.61h47.67c1.79,2.75,3.56,5.51,5.34,8.26,3.89,6.05,7.79,12.08,11.74,18.08,4.33,6.61,8.71,13.18,13.08,19.77,2.93,4.43,5.89,8.85,8.8,13.3Z"/>
      <path class="cls-16" d="m2157.53,1474c-2.38,7-4.82,13.97-7.33,20.92-13.67,37.85-29.48,74.84-47.02,111.04-13.18,27.21-27.8,53.66-43.28,79.66-19.07,32.05-39.59,63.12-61.87,92.99-26.82,35.95-55.43,70.41-86.46,102.86-28.03,29.3-57.25,57.33-88.18,83.51-15.03,12.72-30.67,24.72-46.23,36.82-23.02,17.92-47.15,34.28-71.59,50.2-3.16,2.07-6.23,4.28-9.33,6.44-1.1.77-2.13,1.69-3.28,2.34-2.97,1.7-5.08,1.26-7.05-1.34-.66-.87-1.21-1.8-1.75-2.72-4.67-7.9-9.34-15.8-14-23.72-.67-1.16-1.33-2.36-1.84-3.61-.77-1.93-.49-3.74,1.25-5.07,1.28-.98,2.64-1.87,4.02-2.72,31.56-19.38,61.71-40.8,90.86-63.59,42.84-33.49,82.66-70.35,119.95-109.87,12.03-12.77,23.49-26.08,34.84-39.46,11.34-13.39,22.64-26.85,33.17-40.87,13.3-17.67,26-35.82,38.61-54,17.12-24.64,32.64-50.26,47.3-76.41,18.23-32.53,34.41-66.07,49.25-100.27,9.02-20.77,17.23-41.82,24.79-63.1l45.2-.02Z"/>
      <path class="cls-16" d="m2200.3,1306.6c-3.92,19.02-7.62,38.1-11.79,57.07-3.54,16.1-7.49,32.1-11.85,47.97-14.72,0-29.44.02-44.17.03,7.16-24.71,13.26-49.71,18.49-74.92,3.07-14.77,5.66-29.66,8.57-45.07,5.95-.72,32.85,2.93,40.89,5.56,1.18,3.03.51,6.2-.15,9.36Z"/>
      <path class="cls-16" d="m1991.87,887.1c-4.8,7.33-9.59,14.66-14.41,21.98-4.05,6.18-8.12,12.36-12.2,18.54-1.82-7.15-3.72-14.26-5.72-21.35-6.89-24.41-14.59-48.58-23.49-72.36-14.41-38.48-30.97-75.95-50.46-112.13-21.41-39.77-45.41-77.9-72.45-114.09-24.92-33.35-51.9-64.95-81.43-94.33-13.95-13.9-28.38-27.35-42.79-40.77-6.71-6.26-13.89-11.98-20.85-17.97-1.41-1.21-2.77-2.49-4.48-4.03.39-1.48.39-2.43.85-3,6.44-7.95,12.95-15.87,19.49-23.75.46-.56,1.36-.77,2.28-1.25.9.41,2.03.66,2.77,1.31,31.36,27.74,62.46,55.72,90.84,86.58,44.59,48.44,83.61,101.05,117.36,157.55,31.1,52.07,56.54,106.82,76.92,163.92,6.49,18.23,12.43,36.61,17.75,55.15Z"/>
    </g>
    <g id="Lens">
      <path class="cls-16" d="m1775.37,1394.36c-12.28,36.36-27.57,72.08-45.85,107.22-7.33,14.08-15.66,18.62-31.56,17.82-132.59-6.77-265.22-12.54-397.85-18.69-8.49-.39-16.95-1.49-25.43-2.26-.48-1.66-.95-3.31-1.43-4.97,35.66-33.02,71.33-66.05,107.04-99.12h395.08Z"/>
      <path class="cls-16" d="m931.57,837.78c-176.66,164.09-349.32,324.45-526.03,488.56-5.18-34.79-11.03-64.84-13.95-95.17-13.62-141.17,16.2-273.76,80.86-399.19,4.9-9.51,9.18-17.3,23.08-16.56,139.45,7.36,278.94,13.95,418.42,20.79,3.66.18,7.3.64,17.62,1.57Z"/>
      <path class="cls-16" d="m1459.1,573.15c-11.2,121.97-21.64,244.02-32.26,366.04h-47.92c-142.91-156.33-284.06-310.75-427.08-467.16,60.61-12.56,117.56-17.26,174.96-15.08,111.66,4.25,216.7,33.08,315.11,86.35,13.03,7.07,18.64,14.2,17.2,29.85Z"/>
      <path class="cls-16" d="m1248.81,1863.26c-33.44,4.46-61.77,9.67-90.33,11.77-141.64,10.36-275.07-18.21-400.03-86.07-10.62-5.77-16.94-11.43-15.69-25.48,12.03-135.37,23.3-270.8,34.82-406.21.1-1.05,1.07-2.03,3.54-6.61,155.48,170.4,309.75,339.49,467.69,512.59Z"/>
      <path class="cls-16" d="m1774.45,939.2h-306.58c10.34-120.04,20.69-240.01,31.12-361.09,16.8,12.56,30.74,22.36,44.02,33,108.89,87.27,186.22,196.48,231.45,328.09Z"/>
      <path class="cls-16" d="m762.5,1052.2c-19.95,235.48-39.59,467.08-59.48,701.66-6.43-3.89-10.97-6.23-15.07-9.16-127.59-91.56-215.35-212.3-264.93-361.16-3.39-10.16-2.57-16.93,5.54-24.43,108.43-100.17,216.58-200.61,324.85-300.96,1.31-1.21,3.03-2.02,9.08-5.95Z"/>
      <path class="cls-16" d="m1202.64,808.81c-234.24-10.79-463.39-21.33-696.74-32.08,9-12.82,15.3-22.43,22.21-31.57,94.68-124.87,216.04-211.88,366.09-258.42,10.28-3.18,16.84-1.95,24.2,6.2,90.66,100.43,181.65,200.55,272.5,300.8,3.13,3.46,5.77,7.38,11.74,15.08Z"/>
      <path class="cls-16" d="m1693.63,1558.71c-43.36,65.35-93.63,119.3-152.25,165.51-71.13,56.08-150.19,97.22-236.89,123.18-6.41,1.93-17.69-.46-21.98-5.16-93.46-102.13-186.25-204.86-279.14-307.52-1.15-1.26-1.79-2.98-4.98-8.51,232.34,10.85,461.92,21.59,695.25,32.49Z"/>
    </g>
    <g id="Circuit">
      <path class="cls-16" d="m2718.88,1283.91c-15.36,10.87-36.97,9.95-49.35-4.85-.79-.95-1.46-2.07-2.49-2.75-1.18-.79-2.62-1.44-4.07-1.69-1.71-.3-3.52-.11-5.28-.11h-603.45c-11.46,0-22.95-.15-34.43-.23l-1.08,7.77v.02c20.87,29.74,39.92,60.44,60.07,90.58,9.98,14.93,19.77,30,29.62,45.02,1.34,2.03,2.79,4.07,3.77,6.26,1.57,3.51,4.31,4.66,8.33,4.36,2.33-.18,4.67-.21,7.02-.21h2.92c13.85-.02,27.72-.02,41.58-.02,44.21-.05,88.41-.07,132.63-.08,3.52,0,7.08,0,10.59.28,3.44.28,5.82-.62,7.72-3.36,4.15-5.95,10.48-9.54,17.61-12.05,7.52-2.64,15.28-2.64,22.62.1,10.46,3.9,17.94,10.71,21.82,20.38,1.69,4.21,1.71,8.59,1.07,12.93-2.38,16.2-16.51,26.35-31.61,27.49-13.28,1-23.71-3.38-31.28-13.16-1.52-1.98-3.34-3.05-6.03-2.98-1.77.05-3.54-.02-5.3-.02-49.64.02-99.28.02-148.92.03-14.98,0-29.97.02-44.95.02h-21.41c-.89-1.13-1.69-2.07-2.34-3.07-23.18-35.31-46.33-70.66-69.51-105.97-4.57-6.95-9.18-13.87-13.79-20.8v-.02c-4.31-6.51-8.62-13-12.92-19.53-5.93-9.03-11.75-18.15-17.64-27.21-.89-1.36-1.77-2.74-2.74-4.07-1.16-1.57-2.79-2.49-4.98-2.46-1.33.02-2.64,0-3.97,0h-164.1c-98.3,0-196.58-.02-294.88-.02h-175.6c-3.08,0-6.2-.2-9.26,0-9.38.59-16.57-7.92-15.92-14.87.44-4.67,2.18-8.41,6.02-11.44,2.54-2.03,5.39-3.31,8.95-3.28,4.64.03,9.26-.18,13.9-.18,34.56,0,69.15-.02,103.72-.02h40.38c19.98,0,39.97,0,59.97.02h.07s.02-.02.03,0h63.44c67.67.02,135.37.02,203.06.02,39.23.02,78.46.02,117.71.02,32.33.02,64.67.02,97.02.02,108.69.02,217.38.03,326.08.03,93.4.02,186.79-.02,280.19-.05,9.26,0,18.54-.13,27.82-.21,1.54-.02,3.08-.07,4.62-.13,2.59-.1,4.52-1.05,6.13-2.98,8.43-10.13,20.05-13.71,33.71-12.84,3.56.23,6.89,1.2,10.02,2.82,7.46,3.87,13.59,8.9,16.69,16.28,5.16,12.26,2.67,27.56-9.59,36.23Z"/>
      <path class="cls-16" d="m2418.31,1173.09c-9.84,18.77-39.43,28.31-59.9,5.92-.56-.61-1-1.31-1.49-1.95-1.23-1.57-2.87-2.41-5.03-2.39-1.77.02-3.54-.03-5.3-.03-177.97-.03-355.93-.05-533.89-.05-31.13-.02-62.28-.02-93.41-.02-16.77,0-33.56.05-50.33-.02-5.74-.03-11.48-.39-17.21-.52-1.43-.03-2.87.21-4.69.36.49,2.66,1.84,4.43,3.07,6.26,8.25,12.18,16.46,24.38,24.71,36.58,1.26,1.85,2.62,3.66,3.8,5.56.82,1.34,1.39,2.82,2.28,4.62-1.2.31-1.95.69-2.72.69-10.38.05-20.75.02-31.13.1-2.95.02-4.82-.89-6.33-3.31-6.77-10.89-13.79-21.66-20.72-32.46-2.71-4.2-5.69-8.25-8.1-12.56-.16-.26-.31-.54-.46-.82-1.82-3.39-4.33-4.59-8.33-4.38-3.97.21-7.95.05-11.92.05-11.15,0-22.28-.02-33.43-.02-36.74-.02-73.46-.03-110.2-.05-38.02-.02-76.04-.03-114.05-.07-3.95,0-7.97-.05-11.87-.56-7.98-1.05-12.48-5.8-12.54-13.02-.02-2.13.25-4.38.93-6.41,1.93-5.69,6.26-9,13.02-9.31,3.97-.18,7.95-.15,11.92-.15,38.38-.02,76.76-.02,115.15-.02,22.56-.02,45.12-.02,67.67-.02h72.07c19.85,0,39.71,0,59.58-.02,22.79.02,45.59,0,68.4,0,1.52,0,3.05-.13,4.49-.2,10.48-15.97,20.56-31.3,30.62-46.66,12.95-19.79,25.85-39.62,38.85-59.41,2.48-3.77,4.98-7.51,7.51-11.25,3.64-5.41,7.31-10.82,10.89-16.26,9.97-15.18,19.89-30.38,29.62-45.69,1.9-3,4.2-4.08,7.93-4.07,28.94.15,57.85.16,86.77.23,1.72.02,3.44.16,5.61.28-.33,1.26-.3,2.34-.85,3.05-5.93,7.64-11.44,15.51-16.18,23.8-.79,1.38-2,2.1-3.64,2.23-1.54.11-3.08.11-4.62.11-15.67-.08-31.36-.16-47.03-.25-1.1,0-2.21-.05-3.31.03-2.07.18-3.82.9-4.95,2.57-.57.85-1.15,1.69-1.71,2.54-15.54,23.74-31.05,47.48-46.59,71.22-1.52,2.33-3.07,4.67-4.59,7-12.57,19.18-25.15,38.33-37.74,57.49-2.13,3.25-4.44,6.38-6.57,9.62-.62.95-.93,2.07-1.52,3.44,1.57.11,2.62.26,3.69.26h47.94l370.68-.05c54.76-.02,109.53-.07,164.28-.08.66,0,1.33-.07,1.98,0,4.11.49,7.12-.77,9.59-3.9,3.54-4.44,8.51-7.39,14.02-9.67,3.26-1.34,6.62-2.15,10.23-2.1,1.33.02,2.66-.02,3.97-.02,25.13.16,41.82,23.26,31.1,43.71Z"/>
      <path class="cls-16" d="m2564.2,1085.58c-12.41.18-22.41-3.72-29.71-12.77-2.02-2.51-4.48-3.67-7.8-3.62-1.33.02-2.66-.02-3.98-.02-165.92.02-331.86.02-497.8.03-12.02-.02-24.02-.02-36.03,0h-125.22c-8.16,0-16.34.21-24.51.26-2.15,0-4.38.41-6.72-.8.18-.84.13-1.3.36-1.57,5.71-6.61,9.43-14.28,14.31-21.35.59-.84,1.11-1.7,1.64-2.57,1.51-2.51,3.8-3.74,6.98-3.74,3.97,0,7.95-.15,11.92-.13,12.59.07,25.16.18,37.76.28.66.02,1.33,0,1.98.02,3.2.15,5.26-1.05,6.85-3.66,5.18-8.51,10.52-16.95,15.98-25.31,11.49-17.59,23.12-35.12,34.67-52.67,1.87-2.82,3.72-5.64,5.59-8.46,6.9-10.48,13.82-20.94,20.69-31.43,2.16-3.3,4.33-6.61,6.49-9.9,8.57-13.08,17.13-26.16,25.71-39.26,2.11-3.23,4.34-6.43,6.46-9.66,1.23-1.87,2.95-2.93,5.34-3,2.66-.07,5.3-.07,7.95-.07,66.67,0,133.37-.02,200.04-.02,2.64,0,5.31-.16,7.93,0,3.64.23,6.21-.82,8.44-3.57,1.89-2.36,4.61-4.25,7.13-6.15,9.1-6.92,19.82-8.2,30.53-4.87,13.72,4.26,22.31,13.15,24.12,26.54,1.62,12-6.36,26.39-20.82,32.2-14.72,5.9-32.46,1.48-41.74-10.3-2.15-2.72-4.52-4.15-8.18-4.02-3.1.1-6.18.07-9.28.07-61.59-.05-123.2-.1-184.79-.16-1.11,0-2.21.02-3.31,0-1.97-.02-3.36.87-4.39,2.25-.74.98-1.36,2.03-2.03,3.07-8.77,13.53-17.46,27.08-26.31,40.56-4.2,6.39-8.43,12.79-12.64,19.18-7.15,10.8-14.33,21.61-21.48,32.41-2.34,3.54-4.69,7.08-7.03,10.62-8.71,13.15-17.39,26.28-26.07,39.44-1.2,1.82-2.87,3.52-2.8,6.28,1.39.13,2.61.38,3.82.33,5.07-.18,10.13-.66,15.2-.66h16.49c12.05-.02,24.1-.02,36.15-.02,155.55-.05,311.09-.07,466.66-.08,12.13,0,24.28.03,36.41.26,3.89.08,6.72-.95,9.23-3.61,2.98-3.18,6.53-5.87,10.48-8.13,21.75-12.51,46.48,1.1,52.02,19.31,4.57,15.05-8.08,38.08-32.67,38.46Z"/>
      <path class="cls-16" d="m1768.99,1039.74c-.48,1.48-.61,2.66-1.21,3.57-5.69,8.46-11.46,16.89-17.49,25.74-1.26.08-2.98.31-4.72.3h-14.33c-19.69-.02-39.39-.02-59.1-.03-39.98-.03-79.99-.07-119.99-.08-31.84-.02-63.66-.02-95.5-.03-41.92,0-83.82,0-125.74-.02-2.2,0-4.43-.18-6.61,0-7.79.69-12.26-3.9-14.08-8.77-2.67-7.15-1.67-12.31,3.9-16.85,2.38-1.93,4.93-3.33,8.18-3.52,3.97-.25,7.92-.64,11.89-.69,9.26-.13,18.54-.1,27.82-.1,32.41,0,64.82,0,97.23.02,77.31,0,154.64,0,231.98.02,4.52,0,9.03.02,13.56.03,16.46.03,32.9.11,49.36.15,3.16.02,6.36-.13,9.53-.15.36-.02.7-.02,1.07-.02,1.25,0,2.49.25,4.26.44Z"/>
      <path class="cls-16" d="m1917.23,1361.32c-4.07,5.48-9.57,9.38-15.62,11.67-9.98,3.84-21.46,3.31-30.36-1.69-5.13-2.87-9.89-5.93-12.89-10.79-1.18-1.89-2.93-2.9-5.43-2.72-.66.05-1.33.02-1.98.02-21.44.03-42.89.05-64.31.08-14.74.02-29.48.03-44.21.07-3.3,0-6.61.3-9.89.61-1.98.18-3.48-.38-4.54-1.82-1.59-2.13-3.23-4.26-4.62-6.49-11.87-18.98-24.21-37.71-37.02-56.2-.43-.61-.54-1.38-.92-2.43,1.21-.2,2.02-.44,2.8-.43,9.49.05,18.98.34,28.44.11,4.84-.11,7.92,1.49,10.23,5.12,5.46,8.59,11.05,17.12,16.59,25.66,3.69,5.69,2.49,6.15,11.87,5.93,11.25-.26,22.51-.13,33.76-.15,1.74,0,3.46,0,5.2-.02,15.9-.02,31.84-.05,47.74-.05,3.75,0,7.51-.03,11.25.26,3.39.25,5.69-.61,7.87-3.15,4.67-5.43,10.77-9.25,18.23-11.21,9.05-2.41,17.54-.75,25.54,3.07,3.46,1.66,6.39,3.59,8.84,5.84,5.67,5.18,8.62,11.9,8.92,20.1.23,6.74-1.28,12.98-5.48,18.61Z"/>
      <path class="cls-16" d="m2104.38,1004.33c-13.46,4.9-31.18,2-40.36-9.66-2.18-2.75-4.7-3.82-8.31-3.79-13.43.16-26.84.23-40.26.3-1.56.02-3.13.02-4.69.03-2.34,0-4.77.49-7.95-.75,2.23-3,4.13-5.39,5.85-7.89,1.44-2.13,2.79-4.31,4.15-6.48.25-.41.51-.82.77-1.23,1.98-3.08,4.16-6.08,5.92-9.26,1.71-3.1,4.31-4.1,7.98-3.98,9.03.26,18.07.2,27.08.57,3.26.13,5.38-.61,7.13-3.08,4.82-6.71,11.44-11.31,20.02-13.75,16.56-4.72,37.64,3.39,42.99,21.51,4.84,16.39-3.61,31.39-20.31,37.46Z"/>
    </g>
    <g id="AI">
      <g>
        <path class="cls-16" d="m1287.19,1048.49c-.03-18.77-14.22-33.47-32.88-33.5-79.4-.17-158.8-.2-238.22,0-18.77.06-32.69,14.7-32.69,33.52-.08,78.92-.08,157.82-.03,236.74,0,19.25,14.28,33.3,33.47,33.3,39.36.03,78.73.03,118.09.03v-.08c39.14,0,78.28.06,117.42-.03,21.2-.03,34.98-13.55,35.01-34.64.03-78.42-.03-156.9-.17-235.34Zm-58.47,237.64c-31.21.03-62.41.03-93.62.03s-62.47,0-93.67-.03c-16.51-.03-25.59-9.11-25.59-25.56-.03-62.64-.03-125.27-.03-187.88,0-15.51,9.16-25.2,24.7-25.23,63.11-.17,126.25-.17,189.36-.03,15.84.03,24.98,9.69,24.98,25.7.03,62.16.03,124.32.06,186.51,0,17.35-9,26.48-26.18,26.48Z"/>
        <path class="cls-16" d="m1045.31,996.05c.13,4.21-.98,6.08-5.67,5.95-19.18-.54-15.92,3.15-16.18-15.77-.15-11.07-.08-22.15-.07-33.21.02-5.16.95-9.95,6.2-12.57,7-3.49,14.95,1.16,15.46,9.54.48,7.87.1,15.8.1,23.71h.1c0,7.46-.16,14.92.07,22.36Z"/>
        <path class="cls-16" d="m1112.21,1001.61h-21.43v-26.48c.02-8.33-.15-16.67.11-24.98.21-6.3,5-10.93,10.66-10.97,5.23-.02,10.44,4.05,10.54,9.48.31,17.51.11,35.02.11,52.95Z"/>
        <path class="cls-16" d="m1179.84,1001.53q-21.66,1.72-21.64-18.18c.02-11.05-.11-22.1.15-33.15.16-6.52,4.66-10.89,10.51-11h.21c5.3,0,10.54,4.28,10.64,10,.33,17.31.13,34.62.13,52.33Z"/>
        <path class="cls-16" d="m1246.68,1001.58h-21.25c0-17.85-.28-35.35.16-52.82.15-5.9,4.79-9.34,10.56-9.41,5.43-.08,10.21,2.92,10.36,8.62.46,17.72.16,35.48.16,53.61Z"/>
        <path class="cls-16" d="m1045.15,1384.11c-.54,6.43-5.16,10.44-11.26,10.23-5.62-.18-10.31-4.43-10.38-10.44-.23-16.92-.08-33.85-.08-51.48h21.84v38.84c0,4.28.23,8.59-.11,12.85Z"/>
        <path class="cls-16" d="m969.32,1189.81v21.28c-17.64,0-34.95.16-52.25-.1-5.57-.08-9.38-4.84-9.44-10.39-.08-5.84,3.89-10.62,9.82-10.71,17.1-.25,34.21-.08,51.87-.08Z"/>
        <path class="cls-16" d="m969.52,1055.33v21.3c-18,0-35.56.25-53.1-.13-5.43-.13-9.2-5.52-8.84-10.98.39-6.03,3.72-9.98,9.75-10.08,17.13-.3,34.26-.1,52.18-.1Z"/>
        <path class="cls-16" d="m1112.18,1384.54c-.1,6.02-3.97,9.44-10.08,9.71-6.1.26-10.74-2.98-10.92-8.77-.57-17.54-.21-35.12-.21-53.05h21.31c0,17.82.2,34.97-.1,52.12Z"/>
        <path class="cls-16" d="m1246.88,1382.59c-.11,7.48-3.75,11.56-10.23,11.67-6.8.11-11.13-4.07-11.25-11.56-.2-12.62-.07-25.25-.07-37.87v-12.41h21.44c0,11.98-.02,23.64,0,35.3,0,4.95.16,9.92.1,14.87Z"/>
        <path class="cls-16" d="m1179.61,1384.82c-.15,6.07-5.31,9.82-11.15,9.46-6.05-.38-9.95-3.71-10.05-9.77-.26-17.13-.08-34.26-.08-52.07h21.43c0,17.74.28,35.07-.15,52.38Z"/>
        <path class="cls-16" d="m969.88,1278.57h-21.62c-9.93-.03-19.89.18-29.8-.18-6.69-.23-10.84-4.72-10.87-10.62-.02-6.21,4.36-10.67,11.34-10.75,15.13-.18,30.28.03,45.41-.08,3.9-.03,5.85,1.11,5.61,5.39-.28,4.93-.07,9.89-.07,16.25Z"/>
        <path class="cls-16" d="m969.59,1140.38c-.1,1.28-2.84,3.33-4.39,3.34-15.59.25-31.2.26-46.79.05-6.69-.1-10.77-4.41-10.79-10.51,0-5.9,4.07-10.49,10.72-10.84,8.34-.46,16.72-.2,25.08-.21,8.52-.02,17.07,0,26.38,0,0,6.59.26,12.41-.21,18.16Z"/>
        <path class="cls-16" d="m1228.77,1059.55c-31.21-.03-62.38,0-93.59,0s-62.41-.03-93.62,0c-10.17,0-13.69,3.3-13.69,13.16-.03,62.61-.03,125.19.03,187.8,0,10.25,3.24,13.61,13.27,13.61,62.86.08,125.69.08,188.55,0,9.64,0,12.85-3.41,12.85-13.21.03-62.61.03-125.19,0-187.77,0-10.56-3.13-13.58-13.8-13.58Zm-86.69,161.17c-1.96-.2-4.33-2.91-5.25-5.03-6.37-14.61-6.26-14.64-22.49-14.64-7.46,0-14.95.2-22.38-.06-4.22-.14-6.48,1.2-8.07,5.31-5.7,14.86-5.87,14.81-21.68,14.7h-7.63c.87-3.32,1.29-5.7,2.1-7.93,11.48-31.32,23.1-62.58,34.39-93.95,1.68-4.58,3.94-6.76,8.8-6.2,2.23.25,4.53.03,6.79.06,17.15.03,17.21.03,22.96,15.78,10.25,28.16,20.51,56.35,30.7,84.51.75,2.07,1.4,4.19,2.51,7.68-7.79,0-14.33.42-20.76-.22Zm62.78-66.63c0,4.39.03,8.74.03,13.13,0,3.94,0,7.88-.03,11.79-.03,11.65-.06,23.3.11,34.92.03.5,0,1.01-.03,1.48,0,.2,0,.42-.03.61-.11,1.54-.47,2.68-1.23,3.52-.11.14-.25.25-.39.36-.11.11-.25.2-.39.28s-.34.2-.5.25c-.22.11-.48.22-.75.31-.42.14-.92.22-1.48.28-.56.08-1.2.11-1.87.11-19.58,0-19.58.22-19.58-19.47v-80.52c0-1.17,0-2.21.03-3.07,0-.22.03-.45.03-.64.06-1.09.17-1.93.39-2.57.08-.2.17-.36.25-.53.03-.08.08-.14.14-.22.06-.08.08-.17.17-.22l.17-.17c.14-.14.28-.25.45-.34,1.15-.64,3.13-.67,6.51-.64.2.03.42.03.64.03.31,0,.61,0,.89.03,3.32.08,6.65.42,9.92.06,2.04-.22,3.49-.06,4.5.53.11.06.2.11.28.17.03,0,.06.03.11.08.08.03.14.11.22.2.11.08.2.14.28.25.14.17.28.34.39.53.08.11.14.28.22.42.08.17.14.39.22.59.06.17.11.36.17.56.22,1.01.31,2.26.28,3.69-.2,11.4-.17,22.8-.11,34.22Z"/>
        <path class="cls-16" d="m1108.64,1132.37c6.05,17.24,11.52,32.84,17.18,48.95h-34.41c5.71-16.2,11.12-31.58,17.24-48.95Z"/>
      </g>
      <g>
        <path class="cls-16" d="m1287.19,1048.49c-.03-18.77-14.22-33.47-32.88-33.5-79.4-.17-158.8-.2-238.22,0-18.77.06-32.69,14.7-32.69,33.52-.08,78.92-.08,157.82-.03,236.74,0,19.25,14.28,33.3,33.47,33.3,39.36.03,78.73.03,118.09.03v-.08c39.14,0,78.28.06,117.42-.03,21.2-.03,34.98-13.55,35.01-34.64.03-78.42-.03-156.9-.17-235.34Zm-58.47,237.64c-31.21.03-62.41.03-93.62.03s-62.47,0-93.67-.03c-16.51-.03-25.59-9.11-25.59-25.56-.03-62.64-.03-125.27-.03-187.88,0-15.51,9.16-25.2,24.7-25.23,63.11-.17,126.25-.17,189.36-.03,15.84.03,24.98,9.69,24.98,25.7.03,62.16.03,124.32.06,186.51,0,17.35-9,26.48-26.18,26.48Z"/>
        <path class="cls-16" d="m1045.31,996.05c.13,4.21-.98,6.08-5.67,5.95-19.18-.54-15.92,3.15-16.18-15.77-.15-11.07-.08-22.15-.07-33.21.02-5.16.95-9.95,6.2-12.57,7-3.49,14.95,1.16,15.46,9.54.48,7.87.1,15.8.1,23.71h.1c0,7.46-.16,14.92.07,22.36Z"/>
        <path class="cls-16" d="m1112.21,1001.61h-21.43v-26.48c.02-8.33-.15-16.67.11-24.98.21-6.3,5-10.93,10.66-10.97,5.23-.02,10.44,4.05,10.54,9.48.31,17.51.11,35.02.11,52.95Z"/>
        <path class="cls-16" d="m1179.84,1001.53q-21.66,1.72-21.64-18.18c.02-11.05-.11-22.1.15-33.15.16-6.52,4.66-10.89,10.51-11h.21c5.3,0,10.54,4.28,10.64,10,.33,17.31.13,34.62.13,52.33Z"/>
        <path class="cls-16" d="m1246.68,1001.58h-21.25c0-17.85-.28-35.35.16-52.82.15-5.9,4.79-9.34,10.56-9.41,5.43-.08,10.21,2.92,10.36,8.62.46,17.72.16,35.48.16,53.61Z"/>
        <path class="cls-16" d="m1045.15,1384.11c-.54,6.43-5.16,10.44-11.26,10.23-5.62-.18-10.31-4.43-10.38-10.44-.23-16.92-.08-33.85-.08-51.48h21.84v38.84c0,4.28.23,8.59-.11,12.85Z"/>
        <path class="cls-16" d="m969.32,1189.81v21.28c-17.64,0-34.95.16-52.25-.1-5.57-.08-9.38-4.84-9.44-10.39-.08-5.84,3.89-10.62,9.82-10.71,17.1-.25,34.21-.08,51.87-.08Z"/>
        <path class="cls-16" d="m969.52,1055.33v21.3c-18,0-35.56.25-53.1-.13-5.43-.13-9.2-5.52-8.84-10.98.39-6.03,3.72-9.98,9.75-10.08,17.13-.3,34.26-.1,52.18-.1Z"/>
        <path class="cls-16" d="m1112.18,1384.54c-.1,6.02-3.97,9.44-10.08,9.71-6.1.26-10.74-2.98-10.92-8.77-.57-17.54-.21-35.12-.21-53.05h21.31c0,17.82.2,34.97-.1,52.12Z"/>
        <path class="cls-16" d="m1246.88,1382.59c-.11,7.48-3.75,11.56-10.23,11.67-6.8.11-11.13-4.07-11.25-11.56-.2-12.62-.07-25.25-.07-37.87v-12.41h21.44c0,11.98-.02,23.64,0,35.3,0,4.95.16,9.92.1,14.87Z"/>
        <path class="cls-16" d="m1179.61,1384.82c-.15,6.07-5.31,9.82-11.15,9.46-6.05-.38-9.95-3.71-10.05-9.77-.26-17.13-.08-34.26-.08-52.07h21.43c0,17.74.28,35.07-.15,52.38Z"/>
        <path class="cls-16" d="m969.88,1278.57h-21.62c-9.93-.03-19.89.18-29.8-.18-6.69-.23-10.84-4.72-10.87-10.62-.02-6.21,4.36-10.67,11.34-10.75,15.13-.18,30.28.03,45.41-.08,3.9-.03,5.85,1.11,5.61,5.39-.28,4.93-.07,9.89-.07,16.25Z"/>
        <path class="cls-16" d="m969.59,1140.38c-.1,1.28-2.84,3.33-4.39,3.34-15.59.25-31.2.26-46.79.05-6.69-.1-10.77-4.41-10.79-10.51,0-5.9,4.07-10.49,10.72-10.84,8.34-.46,16.72-.2,25.08-.21,8.52-.02,17.07,0,26.38,0,0,6.59.26,12.41-.21,18.16Z"/>
        <path class="cls-16" d="m1228.77,1059.55c-31.21-.03-62.38,0-93.59,0s-62.41-.03-93.62,0c-10.17,0-13.69,3.3-13.69,13.16-.03,62.61-.03,125.19.03,187.8,0,10.25,3.24,13.61,13.27,13.61,62.86.08,125.69.08,188.55,0,9.64,0,12.85-3.41,12.85-13.21.03-62.61.03-125.19,0-187.77,0-10.56-3.13-13.58-13.8-13.58Zm-86.69,161.17c-1.96-.2-4.33-2.91-5.25-5.03-6.37-14.61-6.26-14.64-22.49-14.64-7.46,0-14.95.2-22.38-.06-4.22-.14-6.48,1.2-8.07,5.31-5.7,14.86-5.87,14.81-21.68,14.7h-7.63c.87-3.32,1.29-5.7,2.1-7.93,11.48-31.32,23.1-62.58,34.39-93.95,1.68-4.58,3.94-6.76,8.8-6.2,2.23.25,4.53.03,6.79.06,17.15.03,17.21.03,22.96,15.78,10.25,28.16,20.51,56.35,30.7,84.51.75,2.07,1.4,4.19,2.51,7.68-7.79,0-14.33.42-20.76-.22Zm62.78-66.63c0,4.39.03,8.74.03,13.13,0,3.94,0,7.88-.03,11.79-.03,11.65-.06,23.3.11,34.92.03.5,0,1.01-.03,1.48,0,.2,0,.42-.03.61-.11,1.54-.47,2.68-1.23,3.52-.11.14-.25.25-.39.36-.11.11-.25.2-.39.28s-.34.2-.5.25c-.22.11-.48.22-.75.31-.42.14-.92.22-1.48.28-.56.08-1.2.11-1.87.11-19.58,0-19.58.22-19.58-19.47v-80.52c0-1.17,0-2.21.03-3.07,0-.22.03-.45.03-.64.06-1.09.17-1.93.39-2.57.08-.2.17-.36.25-.53.03-.08.08-.14.14-.22.06-.08.08-.17.17-.22l.17-.17c.14-.14.28-.25.45-.34,1.15-.64,3.13-.67,6.51-.64.2.03.42.03.64.03.31,0,.61,0,.89.03,3.32.08,6.65.42,9.92.06,2.04-.22,3.49-.06,4.5.53.11.06.2.11.28.17.03,0,.06.03.11.08.08.03.14.11.22.2.11.08.2.14.28.25.14.17.28.34.39.53.08.11.14.28.22.42.08.17.14.39.22.59.06.17.11.36.17.56.22,1.01.31,2.26.28,3.69-.2,11.4-.17,22.8-.11,34.22Z"/>
        <path class="cls-16" d="m1108.64,1132.37c6.05,17.24,11.52,32.84,17.18,48.95h-34.41c5.71-16.2,11.12-31.58,17.24-48.95Z"/>
      </g>
      <g>
        <path class="cls-16" d="m1287.19,1048.49c-.03-18.77-14.22-33.47-32.88-33.5-79.4-.17-158.8-.2-238.22,0-18.77.06-32.69,14.7-32.69,33.52-.08,78.92-.08,157.82-.03,236.74,0,19.25,14.28,33.3,33.47,33.3,39.36.03,78.73.03,118.09.03v-.08c39.14,0,78.28.06,117.42-.03,21.2-.03,34.98-13.55,35.01-34.64.03-78.42-.03-156.9-.17-235.34Zm-58.47,237.64c-31.21.03-62.41.03-93.62.03s-62.47,0-93.67-.03c-16.51-.03-25.59-9.11-25.59-25.56-.03-62.64-.03-125.27-.03-187.88,0-15.51,9.16-25.2,24.7-25.23,63.11-.17,126.25-.17,189.36-.03,15.84.03,24.98,9.69,24.98,25.7.03,62.16.03,124.32.06,186.51,0,17.35-9,26.48-26.18,26.48Z"/>
        <path class="cls-16" d="m1045.31,996.05c.13,4.21-.98,6.08-5.67,5.95-19.18-.54-15.92,3.15-16.18-15.77-.15-11.07-.08-22.15-.07-33.21.02-5.16.95-9.95,6.2-12.57,7-3.49,14.95,1.16,15.46,9.54.48,7.87.1,15.8.1,23.71h.1c0,7.46-.16,14.92.07,22.36Z"/>
        <path class="cls-16" d="m1112.21,1001.61h-21.43v-26.48c.02-8.33-.15-16.67.11-24.98.21-6.3,5-10.93,10.66-10.97,5.23-.02,10.44,4.05,10.54,9.48.31,17.51.11,35.02.11,52.95Z"/>
        <path class="cls-16" d="m1179.84,1001.53q-21.66,1.72-21.64-18.18c.02-11.05-.11-22.1.15-33.15.16-6.52,4.66-10.89,10.51-11h.21c5.3,0,10.54,4.28,10.64,10,.33,17.31.13,34.62.13,52.33Z"/>
        <path class="cls-16" d="m1246.68,1001.58h-21.25c0-17.85-.28-35.35.16-52.82.15-5.9,4.79-9.34,10.56-9.41,5.43-.08,10.21,2.92,10.36,8.62.46,17.72.16,35.48.16,53.61Z"/>
        <path class="cls-16" d="m1045.15,1384.11c-.54,6.43-5.16,10.44-11.26,10.23-5.62-.18-10.31-4.43-10.38-10.44-.23-16.92-.08-33.85-.08-51.48h21.84v38.84c0,4.28.23,8.59-.11,12.85Z"/>
        <path class="cls-16" d="m969.32,1189.81v21.28c-17.64,0-34.95.16-52.25-.1-5.57-.08-9.38-4.84-9.44-10.39-.08-5.84,3.89-10.62,9.82-10.71,17.1-.25,34.21-.08,51.87-.08Z"/>
        <path class="cls-16" d="m969.52,1055.33v21.3c-18,0-35.56.25-53.1-.13-5.43-.13-9.2-5.52-8.84-10.98.39-6.03,3.72-9.98,9.75-10.08,17.13-.3,34.26-.1,52.18-.1Z"/>
        <path class="cls-16" d="m1112.18,1384.54c-.1,6.02-3.97,9.44-10.08,9.71-6.1.26-10.74-2.98-10.92-8.77-.57-17.54-.21-35.12-.21-53.05h21.31c0,17.82.2,34.97-.1,52.12Z"/>
        <path class="cls-16" d="m1246.88,1382.59c-.11,7.48-3.75,11.56-10.23,11.67-6.8.11-11.13-4.07-11.25-11.56-.2-12.62-.07-25.25-.07-37.87v-12.41h21.44c0,11.98-.02,23.64,0,35.3,0,4.95.16,9.92.1,14.87Z"/>
        <path class="cls-16" d="m1179.61,1384.82c-.15,6.07-5.31,9.82-11.15,9.46-6.05-.38-9.95-3.71-10.05-9.77-.26-17.13-.08-34.26-.08-52.07h21.43c0,17.74.28,35.07-.15,52.38Z"/>
        <path class="cls-16" d="m969.88,1278.57h-21.62c-9.93-.03-19.89.18-29.8-.18-6.69-.23-10.84-4.72-10.87-10.62-.02-6.21,4.36-10.67,11.34-10.75,15.13-.18,30.28.03,45.41-.08,3.9-.03,5.85,1.11,5.61,5.39-.28,4.93-.07,9.89-.07,16.25Z"/>
        <path class="cls-16" d="m969.59,1140.38c-.1,1.28-2.84,3.33-4.39,3.34-15.59.25-31.2.26-46.79.05-6.69-.1-10.77-4.41-10.79-10.51,0-5.9,4.07-10.49,10.72-10.84,8.34-.46,16.72-.2,25.08-.21,8.52-.02,17.07,0,26.38,0,0,6.59.26,12.41-.21,18.16Z"/>
        <path class="cls-16" d="m1228.77,1059.55c-31.21-.03-62.38,0-93.59,0s-62.41-.03-93.62,0c-10.17,0-13.69,3.3-13.69,13.16-.03,62.61-.03,125.19.03,187.8,0,10.25,3.24,13.61,13.27,13.61,62.86.08,125.69.08,188.55,0,9.64,0,12.85-3.41,12.85-13.21.03-62.61.03-125.19,0-187.77,0-10.56-3.13-13.58-13.8-13.58Zm-86.69,161.17c-1.96-.2-4.33-2.91-5.25-5.03-6.37-14.61-6.26-14.64-22.49-14.64-7.46,0-14.95.2-22.38-.06-4.22-.14-6.48,1.2-8.07,5.31-5.7,14.86-5.87,14.81-21.68,14.7h-7.63c.87-3.32,1.29-5.7,2.1-7.93,11.48-31.32,23.1-62.58,34.39-93.95,1.68-4.58,3.94-6.76,8.8-6.2,2.23.25,4.53.03,6.79.06,17.15.03,17.21.03,22.96,15.78,10.25,28.16,20.51,56.35,30.7,84.51.75,2.07,1.4,4.19,2.51,7.68-7.79,0-14.33.42-20.76-.22Zm62.78-66.63c0,4.39.03,8.74.03,13.13,0,3.94,0,7.88-.03,11.79-.03,11.65-.06,23.3.11,34.92.03.5,0,1.01-.03,1.48,0,.2,0,.42-.03.61-.11,1.54-.47,2.68-1.23,3.52-.11.14-.25.25-.39.36-.11.11-.25.2-.39.28s-.34.2-.5.25c-.22.11-.48.22-.75.31-.42.14-.92.22-1.48.28-.56.08-1.2.11-1.87.11-19.58,0-19.58.22-19.58-19.47v-80.52c0-1.17,0-2.21.03-3.07,0-.22.03-.45.03-.64.06-1.09.17-1.93.39-2.57.08-.2.17-.36.25-.53.03-.08.08-.14.14-.22.06-.08.08-.17.17-.22l.17-.17c.14-.14.28-.25.45-.34,1.15-.64,3.13-.67,6.51-.64.2.03.42.03.64.03.31,0,.61,0,.89.03,3.32.08,6.65.42,9.92.06,2.04-.22,3.49-.06,4.5.53.11.06.2.11.28.17.03,0,.06.03.11.08.08.03.14.11.22.2.11.08.2.14.28.25.14.17.28.34.39.53.08.11.14.28.22.42.08.17.14.39.22.59.06.17.11.36.17.56.22,1.01.31,2.26.28,3.69-.2,11.4-.17,22.8-.11,34.22Z"/>
        <path class="cls-16" d="m1108.64,1132.37c6.05,17.24,11.52,32.84,17.18,48.95h-34.41c5.71-16.2,11.12-31.58,17.24-48.95Z"/>
      </g>
    </g>
    <path class="cls-16" d="m1651.74,1174.02c-1.43-.03-2.87.21-4.69.36.49,2.66,1.84,4.43,3.07,6.26,8.25,12.18,16.46,24.38,24.71,36.58,1.26,1.85,2.62,3.66,3.8,5.56.82,1.34,1.39,2.82,2.28,4.62-1.2.31-1.95.69-2.72.69-10.38.05-20.75.02-31.13.1-2.95.02-4.82-.89-6.33-3.31-6.77-10.89-13.79-21.66-20.72-32.46-2.71-4.2-5.69-8.25-8.1-12.56-.16-.26-.31-.54-.46-.82-1.82-3.39-4.33-4.59-8.33-4.38-3.97.21-7.95.05-11.92.05-11.15,0-22.28-.02-33.43-.02-36.74-.02-73.46-.03-110.2-.05-38.02-.02-76.04-.03-114.05-.07-3.95,0-7.97-.05-11.87-.56-7.98-1.05-12.48-5.8-12.54-13.02-.02-2.13.25-4.38.93-6.41,1.93-5.69,6.26-9,13.02-9.31,3.97-.18,7.95-.15,11.92-.15,38.38-.02,76.76-.02,115.15-.02,22.56-.02,45.12-.02,67.67-.02h72.07c19.85,0,39.71,0,59.58-.02,22.79.02,45.59,0,68.4,0,1.52,0,3.05-.13,4.49-.2,10.48-15.97,20.56-31.3,30.62-46.66,12.95-19.79,25.85-39.62,38.85-59.41,2.48-3.77,4.98-7.51,7.51-11.25,3.64-5.41,7.31-10.82,10.89-16.26,9.97-15.18,19.89-30.38,29.62-45.69,1.9-3,4.2-4.08,7.93-4.07,28.94.15,57.85.16,86.77.23,1.72.02,3.44.16,5.61.28-.33,1.26-.3,2.34-.85,3.05-5.93,7.64-11.44,15.51-16.18,23.8-.79,1.38-2,2.1-3.64,2.23-1.54.11-3.08.11-4.62.11-15.67-.08-31.36-.16-47.03-.25-1.1,0-2.21-.05-3.31.03-2.07.18-3.82.9-4.95,2.57-.57.85-1.15,1.69-1.71,2.54-15.54,23.74-31.05,47.48-46.59,71.22-1.52,2.33-3.07,4.67-4.59,7-12.57,19.18-25.15,38.33-37.74,57.49-2.13,3.25-4.44,6.38-6.57,9.62-.62.95-.93,2.07-1.52,3.44,1.57.11,2.62.26,3.69.26h47.94l370.68-.05c54.76-.02,109.53-.07,164.28-.08.66,0,1.33-.07,1.98,0,4.11.49,7.12-.77,9.59-3.9,3.54-4.44,8.51-7.39,14.02-9.67,3.26-1.34,6.62-2.15,10.23-2.1,1.33.02,2.66-.02,3.97-.02,25.13.16,41.82,23.26,31.1,43.71-9.84,18.77-39.43,28.31-59.9,5.92-.56-.61-1-1.31-1.49-1.95-1.23-1.57-2.87-2.41-5.03-2.39-1.77.02-3.54-.03-5.3-.03-177.97-.03-355.93-.05-533.89-.05-31.13-.02-62.28-.02-93.41-.02-16.77,0-33.56.05-50.33-.02-5.74-.03-11.48-.39-17.21-.52Z"/>
    <path class="cls-16" d="m2043.12,856.18c66.67,0,133.37-.02,200.04-.02,2.64,0,5.31-.16,7.93,0,3.64.23,6.21-.82,8.44-3.57,1.89-2.36,4.61-4.25,7.13-6.15,9.1-6.92,19.82-8.2,30.53-4.87,13.72,4.26,22.31,13.15,24.12,26.54,1.62,12-6.36,26.39-20.82,32.2-14.72,5.9-32.46,1.48-41.74-10.3-2.15-2.72-4.52-4.15-8.18-4.02-3.1.1-6.18.07-9.28.07-61.59-.05-123.2-.1-184.79-.16-1.11,0-2.21.02-3.31,0-1.97-.02-3.36.87-4.39,2.25-.74.98-1.36,2.03-2.03,3.07-8.77,13.53-17.46,27.08-26.31,40.56-4.2,6.39-8.43,12.79-12.64,19.18-7.15,10.8-14.33,21.61-21.48,32.41-2.34,3.54-4.69,7.08-7.03,10.62-8.71,13.15-17.39,26.28-26.07,39.44-1.2,1.82-2.87,3.52-2.8,6.28,1.39.13,2.61.38,3.82.33,5.07-.18,10.13-.66,15.2-.66h16.49c12.05-.02,24.1-.02,36.15-.02,155.55-.05,311.09-.07,466.66-.08,12.13,0,24.28.03,36.41.26,3.89.08,6.72-.95,9.23-3.61,2.98-3.18,6.53-5.87,10.48-8.13,21.75-12.51,46.48,1.1,52.02,19.31,4.57,15.05-8.08,38.08-32.67,38.46-12.41.18-22.41-3.72-29.71-12.77-2.02-2.51-4.48-3.67-7.8-3.62-1.33.02-2.66-.02-3.98-.02-165.92.02-331.86.02-497.8.03-12.02-.02-24.02-.02-36.03,0h-125.22c-8.16,0-16.34.21-24.51.26-2.15,0-4.38.41-6.72-.8.18-.84.13-1.3.36-1.57,5.71-6.61,9.43-14.28,14.31-21.35.59-.84,1.11-1.7,1.64-2.57,1.51-2.51,3.8-3.74,6.98-3.74,3.97,0,7.95-.15,11.92-.13,12.59.07,25.16.18,37.76.28.66.02,1.33,0,1.98.02,3.2.15,5.26-1.05,6.85-3.66,5.18-8.51,10.52-16.95,15.98-25.31,11.49-17.59,23.12-35.12,34.67-52.67,1.87-2.82,3.72-5.64,5.59-8.46,6.9-10.48,13.82-20.94,20.69-31.43,2.16-3.3,4.33-6.61,6.49-9.9,8.57-13.08,17.13-26.16,25.71-39.26,2.11-3.23,4.34-6.43,6.46-9.66,1.23-1.87,2.95-2.93,5.34-3,2.66-.07,5.3-.07,7.95-.07Z"/>
    <path class="cls-16" d="m2718.88,1283.91c-15.36,10.87-36.97,9.95-49.35-4.85-.79-.95-1.46-2.07-2.49-2.75-1.18-.79-2.62-1.44-4.07-1.69-1.71-.3-3.52-.11-5.28-.11h-603.45c-11.46,0-22.95-.15-34.43-.23l-1.08,7.77v.02c20.87,29.74,39.92,60.44,60.07,90.58,9.98,14.93,19.77,30,29.62,45.02,1.34,2.03,2.79,4.07,3.77,6.26,1.57,3.51,4.31,4.66,8.33,4.36,2.33-.18,4.67-.21,7.02-.21h2.92c13.85-.02,27.72-.02,41.58-.02,44.21-.05,88.41-.07,132.63-.08,3.52,0,7.08,0,10.59.28,3.44.28,5.82-.62,7.72-3.36,4.15-5.95,10.48-9.54,17.61-12.05,7.52-2.64,15.28-2.64,22.62.1,10.46,3.9,17.94,10.71,21.82,20.38,1.69,4.21,1.71,8.59,1.07,12.93-2.38,16.2-16.51,26.35-31.61,27.49-13.28,1-23.71-3.38-31.28-13.16-1.52-1.98-3.34-3.05-6.03-2.98-1.77.05-3.54-.02-5.3-.02-49.64.02-99.28.02-148.92.03-14.98,0-29.97.02-44.95.02h-21.41c-.89-1.13-1.69-2.07-2.34-3.07-23.18-35.31-46.33-70.66-69.51-105.97-4.57-6.95-9.18-13.87-13.79-20.8v-.02c-4.31-6.51-8.62-13-12.92-19.53-5.93-9.03-11.75-18.15-17.64-27.21-.89-1.36-1.77-2.74-2.74-4.07-1.16-1.57-2.79-2.49-4.98-2.46-1.33.02-2.64,0-3.97,0h-164.1c-98.3,0-196.58-.02-294.88-.02h-175.6c-3.08,0-6.2-.2-9.26,0-9.38.59-16.57-7.92-15.92-14.87.44-4.67,2.18-8.41,6.02-11.44,2.54-2.03,5.39-3.31,8.95-3.28,4.64.03,9.26-.18,13.9-.18,34.56,0,69.15-.02,103.72-.02h40.38c19.98,0,39.97,0,59.97.02h.07s.02-.02.03,0h63.44c67.67.02,135.37.02,203.06.02,39.23.02,78.46.02,117.71.02,32.33.02,64.67.02,97.02.02,108.69.02,217.38.03,326.08.03,93.4.02,186.79-.02,280.19-.05,9.26,0,18.54-.13,27.82-.21,1.54-.02,3.08-.07,4.62-.13,2.59-.1,4.52-1.05,6.13-2.98,8.43-10.13,20.05-13.71,33.71-12.84,3.56.23,6.89,1.2,10.02,2.82,7.46,3.87,13.59,8.9,16.69,16.28,5.16,12.26,2.67,27.56-9.59,36.23Z"/>
  </g>
  <g>
    <g id="Outer_C-2" data-name="Outer C">
      <path class="cls-3" d="m1582.48,355.34c-1.3,2.05-2.8,3.97-4.08,6.03-10.75,17.15-21.49,34.31-32.2,51.48-12.43,19.94-24.82,39.89-37.2,59.84-3.41,5.51-6.72,11.07-10,16.66-2.93,4.98-4.71,5.69-9.77,2.89-5.2-2.85-10.23-6.02-15.31-9.08-20.82-12.57-42.54-23.43-64.64-33.54-26.02-11.92-52.64-22.38-79.84-31.26-25.41-8.3-51.05-15.8-77.23-21.21-18.48-3.82-36.98-7.67-55.81-9.64-8.05-.84-16.02-2.38-24.08-3.15-39.82-3.87-79.74-4.84-119.73-3.26-9.71.38-19.39.97-29.1,1.41-2.67.11-5.34.02-8.92.02-2.02-17.05-3.41-33.12-4.39-48.72-1.93-2.57-4.23-2.26-6.3-2.05-7.51.79-15.02,1.66-22.51,2.61-39.67,5.07-78.76,13.12-117.23,24.07-47.1,13.43-92.59,31.03-136.51,52.66-29.79,14.67-58.67,31.03-86.48,49.25-26.9,17.62-52.62,36.79-77.4,57.31-32.72,27.12-62.69,57-90.97,88.66-19.25,21.56-37.05,44.33-53.61,68.02-16.08,23-31.3,46.61-44.79,71.26-1.3,2.36-2.38,4.84-3.62,7.23-1.43,2.77-2.93,3.64-5.9,2.71-3.07-.97-6.07-2.28-8.9-3.79-8.57-4.56-17.05-9.31-25.59-13.95-17.3-9.43-34.59-18.87-51.92-28.25-3.56-1.93-7.26-3.59-10.8-5.52-2.56-1.39-3.33-3.38-2.44-6.1.49-1.52,1.26-2.98,2.07-4.36,11.48-19.56,22.69-39.28,35.28-58.17,13.18-19.75,26.49-39.43,41.28-58.03,12.26-15.43,24.38-30.98,37.31-45.84,23.05-26.49,47.67-51.48,73.51-75.31,37.8-34.87,78.4-66.12,121.27-94.43,38.82-25.64,79.43-48.15,121.66-67.54,50.36-23.12,102.4-41.8,156.14-55.56,35.85-9.2,72.05-16.53,108.76-21.49,22.48-3.03,45.07-4.66,67.67-6.43,34.25-2.69,68.51-2.26,102.79-1.05,10.51.38,21,1.51,31.49,2.31,7.26.56,14.56.9,21.79,1.77,16.08,1.89,32.17,3.75,48.18,6.16,45.71,6.85,90.51,17.67,134.68,31.31,34.35,10.59,67.94,23.18,100.77,37.67,35.35,15.61,69.58,33.43,102.72,53.28,2.79,1.67,5.67,3.16,8.36,4.95,3.48,2.28,3.85,4.52,1.54,8.2Z"/>
      <path class="cls-15" d="m1012.67,151.76c.08,1.03-.28,2.08-.44,3.18-2.72,1.84-5.72,1.92-8.62,2.21-8.07.84-16.15,1.39-24.2,2.31-7.49.87-14.98,1.97-22.44,3.15-27.2,4.26-54.21,9.52-81.04,15.8-40.54,9.49-80.05,22.3-118.95,37-36.9,13.95-72.61,30.57-107.43,49.13-18.12,9.66-35.95,19.77-53.38,30.61-27.98,17.38-55.36,35.72-81.12,56.31-18.54,14.84-37.2,29.61-54.99,45.33-21.25,18.75-41.44,38.67-60.72,59.49-31.61,34.15-60.81,70.22-87.43,108.33-18.39,26.36-35.33,53.64-51.03,81.71-14.1,25.23-26.61,51.23-38.89,77.38-1.48,3.16-2.93,6.54-5.25,9.07-6.54,7.16-10.3,15.8-13.71,24.59-11.54,29.71-22.28,59.67-30.94,90.36-8.36,29.61-15.75,59.46-21.28,89.76-4.59,25.25-8.28,50.61-11.07,76.1-4.66,42.76-5.9,85.63-4.97,128.61.56,26.21,2.51,52.33,5.39,78.36,4.54,40.8,11.57,81.2,21.33,121.12,7.57,30.97,16.61,61.48,27.1,91.58.18.51.38,1,.54,1.52,1.57,5,1.1,6.23-3.62,8.03-5.05,1.92-10.16,3.62-15.26,5.41-16.54,5.82-33.08,11.62-49.62,17.48-10.67,3.79-21.35,7.64-31.98,11.52-4.82,1.77-9.57,3.66-14.33,5.59-3.28,1.34-6.52,2.49-10.46,1.46-.64-1.34-1.49-2.7-1.98-4.18-10.64-32.03-20.82-64.2-28.9-96.97-6.26-25.43-11.77-51-16.28-76.82-4.31-24.74-8.02-49.58-10.64-74.54-2.39-22.8-3.62-45.74-4.92-68.66-2.31-41.03-.77-82.07,1.51-123.05,1.44-25.9,4.39-51.66,8.05-77.31,7.84-55.15,19.43-109.48,35.39-162.86,12.31-41.15,26.76-81.54,44-120.91,4.43-10.13,8.51-20.43,12.84-30.61.59-1.39,1.72-2.57,2.61-3.87,3.69.18,6.49,1.8,9.39,3.21,13.34,6.48,26.71,12.97,40.07,19.41,1.71.82,3.43,1.64,5.23,2.18,2.67.82,4.74-.07,6.2-2.48.56-.9.98-1.92,1.36-2.92,6.23-16.48,14.9-31.74,23.36-47.12,15.61-28.39,32.3-56.17,50.43-83.04,18.89-27.98,39.07-55.03,60.69-80.99,22.64-27.2,46.38-53.4,71.74-78.12,37.97-37,78.33-71.13,121.3-102.22,19.03-13.77,38.66-26.64,58.51-39.2,37.48-23.72,76.54-44.46,116.82-62.97,27.72-12.75,56.02-24.08,84.72-34.39,38.67-13.89,78.08-25.2,118.15-34.17,34.25-7.67,68.72-14.16,103.71-17.62,7.51-.75,15-1.8,22.51-2.61,2.08-.21,4.18-.03,6.49-.03.39,1.34.85,2.33.93,3.34,1.89,22.31,3.72,44.64,5.51,66.97Z"/>
      <path class="cls-18" d="m2065.77,558c-.57.52-1.26,1.38-2.15,1.89-14.49,8.34-29.05,16.61-43.54,24.97-19.87,11.46-39.71,22.97-59.54,34.49-3.03,1.75-5.89,3.85-8.98,5.49-4.05,2.13-6.44,1.49-8.85-2.39-4.11-6.66-7.98-13.46-12.07-20.15-20.43-33.46-43.38-65.15-67.72-95.84-30.12-37.94-63.41-72.9-98.68-106.05-30.36-28.54-62.74-54.59-96.66-78.67-35.92-25.48-73.3-48.62-112.36-69.1-31.12-16.3-62.95-31-95.61-43.8-29.13-11.43-58.61-21.98-88.84-30.23-13.54-3.69-27-7.69-40.62-10.97-23.36-5.61-46.9-10.41-70.63-14.15-24.79-3.89-49.67-6.93-74.74-8.93-34.49-2.77-68.99-3.85-103.56-3.54-1.61.02-3.21-.18-5.33-.31-.51-1.34-1-2.07-1.02-2.8-1.18-44-2.33-87.99-3.44-131.99-.05-1.56.25-3.15.44-5.15,1.74-.3,3.25-.77,4.75-.75,18.9.16,37.82-.02,56.69.69,31.03,1.15,62.05,2.64,92.92,6.21,28.41,3.31,56.76,7.16,84.84,12.75,24.61,4.9,49.07,10.41,73.38,16.72,26.13,6.79,51.92,14.72,77.48,23.33,29.43,9.9,58.26,21.34,86.76,33.69,43.43,18.8,85.22,40.72,125.97,64.67,27.49,16.15,53.99,33.84,79.67,52.69,17.2,12.61,34.41,25.23,51,38.61,34.28,27.66,66.69,57.4,97.33,89.08,28.74,29.74,55.82,60.87,81.1,93.61,21.82,28.21,42.46,57.23,61.15,87.61,6.08,9.89,12.2,19.75,18.25,29.64,1.54,2.52,3.08,5.11,2.61,8.69Z"/>
      <path class="cls-12" d="m1572.95,2124.92c-1,.72-1.97,1.67-3.11,2.16-21.39,9-42.62,18.41-64.26,26.76-21.13,8.15-42.53,15.71-64.12,22.59-21.84,6.97-43.92,13.25-66.1,19.02-19.31,5.03-38.84,9.26-58.41,13.23-16.9,3.44-33.92,6.48-51,8.84-23.53,3.26-47.05,6.44-70.77,8.13-21.28,1.52-42.54,2.95-63.85,3.67-21.61.74-43.18.54-64.79-.28-26.44-1-52.85-2.48-79.17-5.3-25.75-2.74-51.41-6.26-76.97-10.67-23.67-4.08-47.18-8.93-70.48-14.75-21.18-5.3-42.2-11.33-63.22-17.33-11.66-3.33-23.25-6.98-34.72-10.93-13.77-4.74-27.46-9.75-41.05-14.97-41.87-16.07-82.59-34.69-122.14-55.82-34.07-18.21-67.17-38.02-99.17-59.69-26.62-18.02-52.54-37-77.49-57.25-44.92-36.46-87.1-75.87-125.91-118.84-19.18-21.26-37.33-43.36-55.05-65.84-18.25-23.13-35-47.31-51.49-71.67-4.38-6.48-8.3-13.26-12.28-20-2.41-4.07-1.75-6.1,2.31-8.64,12.15-7.57,24.28-15.13,36.41-22.69.46-.3.92-.56,1.39-.82,3.95-2.11,5.61-1.69,8.02,2.08,4.21,6.59,8.25,13.31,12.67,19.77,10.69,15.57,21.28,31.23,32.43,46.46,27.77,37.97,57.84,74.04,90.86,107.56,18,18.28,35.76,36.84,55.18,53.61,20.03,17.28,40.05,34.57,61.13,50.61,40.66,30.94,83,59.31,127.58,84.28,22.13,12.41,44.61,24.18,67.81,34.53,5.67,2.52,11.15,5.46,16.74,8.16,5,2.43,6.77,1.8,8.79-3.05,4.64-11.21,9.31-22.41,13.9-33.66,1.21-2.98,2.11-6.1,3.3-9.11.56-1.46,1.43-2.79,1.98-3.84,3.11-1,5.28.39,7.43,1.38,38.67,17.57,78.84,30.98,119.53,42.89,20.71,6.07,41.64,11.25,62.72,15.93,18.48,4.08,37.05,7.41,55.66,10.56,37.03,6.25,74.38,9.57,111.89,11.56,40.8,2.15,81.51.92,122.22-1.79,32.64-2.16,64.94-6.69,97.15-12.18,61.92-10.56,122.14-27.26,180.91-49.35,22.23-8.34,44.25-17.25,65.59-27.71,1.39-.69,2.97-1.03,4.82-1.66,1.16,1.71,2.43,3.11,3.18,4.75,8.2,17.61,16.31,35.25,24.46,52.89,5.33,11.51,10.69,23,16.03,34.51,1.71,3.67,3.25,7.39,3.48,11.9Z"/>
      <path class="cls-8" d="m943.24,1952.1c-6.51,35.28-13.05,70.56-19.64,105.82-.13.72-.79,1.36-1.33,2.25-3.46.48-6.89-.2-10.3-.89-23.28-4.64-46.44-9.87-69.3-16.31-25.44-7.16-50.8-14.71-75.45-24.35-17.84-6.98-35.66-14.03-53.26-21.54-30.08-12.8-59.03-27.92-87.38-44.18-24.84-14.25-48.89-29.77-72.33-46.18-22.77-15.95-44.69-33.07-65.9-51.07-32.79-27.84-63.53-57.79-92.07-89.9-22.61-25.43-43.98-51.89-63.43-79.87-1.38-1.98-3-3.82-4.36-5.82-1.92-2.82-1.52-4.79,1.43-6.82,5.34-3.66,10.75-7.23,16.15-10.8,5.85-3.89,11.72-7.72,17.57-11.59,1.13-.74,2.3-1.44,3.33-2.3,1.97-1.61,2.38-3.38,1.2-5.74-.84-1.69-1.87-3.3-2.93-4.84-23.75-33.92-44.13-69.82-62.28-106.97-20.18-41.3-36.8-84-50.2-127.99-6.93-22.75-12.97-45.71-18.03-68.9-8.77-40.13-14.49-80.71-17.66-121.69-2.15-27.79-2.8-55.54-2.33-83.36.44-25.66,2.89-51.2,5.48-76.72,4.56-44.97,13.49-89.1,25-132.74,10.95-41.59,25.57-81.9,42.53-121.38,1.61-3.72,2.89-7.59,4.59-11.25,1.61-3.49,3.43-4.07,7.23-2.84,1.28.43,2.56.9,3.77,1.46,14.46,6.64,28.94,13.3,43.38,19.97,4.36,2.03,5.28,4.36,3.21,9.16-2.87,6.69-6.03,13.25-8.92,19.94-11.48,26.54-21.31,53.69-29.41,81.43-9.38,32.13-17.44,64.62-22.54,97.76-2.98,19.46-5.64,38.98-7.92,58.56-1.25,10.71-1.2,21.56-2.07,32.31-1.57,19.41-1.77,38.85-1.33,58.28.31,13.21,1.1,26.43,1.97,39.62.95,14.26,1.95,28.53,3.9,42.72,2.49,18.18,5.18,36.33,8.61,54.36,7.61,40.12,18.74,79.26,32.15,117.81,12.97,37.28,29.02,73.23,47.33,108.18,16.18,30.9,34.39,60.53,54.62,88.94,5,7.05,9.53,14.34,13.49,22.08,3.16,6.2,7.2,12.07,11.54,17.54,21.48,27.12,44.41,52.95,69.3,77.02,34.62,33.48,71.76,63.87,111.61,90.97,31.53,21.43,64.38,40.59,98.58,57.41,27.87,13.69,56.46,25.67,85.76,36.07,39,13.82,78.9,24.16,119.38,32.51,2.31.48,4.57,1.31,6.52,1.87.39,1.02.82,1.56.74,2Z"/>
      <path class="cls-13" d="m2006.23,1350.31v.02c-3.98,18-8.49,35.89-13.49,53.69-17.41,62.08-41.3,121.55-71.12,178.66-12.12,23.21-24.97,46.03-39.07,68.1-26.07,40.77-54.89,79.51-86.76,115.94-17.08,19.53-34.69,38.54-53.49,56.4-14.89,14.12-29.8,28.21-45.77,41.13-13.23,10.67-26.25,21.66-39.94,31.71-20.02,14.67-40.25,29.12-60.99,42.76-17.33,11.43-35.43,21.67-53.69,31.61-18.26,9.95-36.61,19.67-55.48,28.39-42.43,19.62-85.97,36.33-130.82,49.53-27.18,8-54.61,15.1-82.41,20.49-18,3.49-36.03,7.02-54.33,8.9-8.57.89-17.1,2.38-25.67,3.43-7.75.97-15.53,1.95-23.33,2.51-15.07,1.08-30.15,1.9-45.25,2.72-2.07.11-4.18-.34-6.34-.56-.39-1.43-.92-2.44-.92-3.46-.05-14.25-.03-28.49-.03-43.28,2.11-.28,4.16-.69,6.23-.8,17.23-1.05,34.53-1.46,51.69-3.2,23.89-2.41,47.66-5.85,71.31-10.12,55.95-10.03,110.46-25.21,163.51-45.51,36.59-13.98,72-30.54,106.43-49.3,23.49-12.8,46.41-26.48,68.64-41.33,8.52-5.71,17.03-11.43,25.48-17.26,4.64-3.2,4.93-6.2,1.39-10.85-7.36-9.67-14.72-19.31-22.05-29-.64-.82-.98-1.87-1.61-3.07.93-1.33,1.66-2.8,2.79-3.85,1.77-1.64,3.8-3.02,5.75-4.46,34.9-25.66,67-54.49,97.12-85.58,27.64-28.53,53.23-58.81,76.58-91,33.23-45.8,61.77-94.33,85.27-145.84,14.25-31.21,26.87-63.07,37.17-95.79,1.13-3.57,2.23-7.16,3.3-10.75,13.66-2.1,26-9.31,34.07-20.16,6.15-8.28,9.08-18.03,8.69-28.97-.56-15.92-8.26-28.98-21.85-37.31.67-3.77,1.33-7.54,1.95-11.33.15-.87.28-1.74.41-2.61h47.67c1.79,2.75,3.56,5.51,5.34,8.26,3.89,6.05,7.79,12.08,11.74,18.08,4.33,6.61,8.71,13.18,13.08,19.77,2.93,4.43,5.89,8.85,8.8,13.3Z"/>
      <path class="cls-19" d="m2157.53,1474c-2.38,7-4.82,13.97-7.33,20.92-13.67,37.85-29.48,74.84-47.02,111.04-13.18,27.21-27.8,53.66-43.28,79.66-19.07,32.05-39.59,63.12-61.87,92.99-26.82,35.95-55.43,70.41-86.46,102.86-28.03,29.3-57.25,57.33-88.18,83.51-15.03,12.72-30.67,24.72-46.23,36.82-23.02,17.92-47.15,34.28-71.59,50.2-3.16,2.07-6.23,4.28-9.33,6.44-1.1.77-2.13,1.69-3.28,2.34-2.97,1.7-5.08,1.26-7.05-1.34-.66-.87-1.21-1.8-1.75-2.72-4.67-7.9-9.34-15.8-14-23.72-.67-1.16-1.33-2.36-1.84-3.61-.77-1.93-.49-3.74,1.25-5.07,1.28-.98,2.64-1.87,4.02-2.72,31.56-19.38,61.71-40.8,90.86-63.59,42.84-33.49,82.66-70.35,119.95-109.87,12.03-12.77,23.49-26.08,34.84-39.46,11.34-13.39,22.64-26.85,33.17-40.87,13.3-17.67,26-35.82,38.61-54,17.12-24.64,32.64-50.26,47.3-76.41,18.23-32.53,34.41-66.07,49.25-100.27,9.02-20.77,17.23-41.82,24.79-63.1l45.2-.02Z"/>
      <path class="cls-14" d="m2200.3,1306.6c-3.92,19.02-7.62,38.1-11.79,57.07-3.54,16.1-7.49,32.1-11.85,47.97-14.72,0-29.44.02-44.17.03,7.16-24.71,13.26-49.71,18.49-74.92,3.07-14.77,5.66-29.66,8.57-45.07,5.95-.72,32.85,2.93,40.89,5.56,1.18,3.03.51,6.2-.15,9.36Z"/>
      <path class="cls-10" d="m1991.87,887.1c-4.8,7.33-9.59,14.66-14.41,21.98-4.05,6.18-8.12,12.36-12.2,18.54-1.82-7.15-3.72-14.26-5.72-21.35-6.89-24.41-14.59-48.58-23.49-72.36-14.41-38.48-30.97-75.95-50.46-112.13-21.41-39.77-45.41-77.9-72.45-114.09-24.92-33.35-51.9-64.95-81.43-94.33-13.95-13.9-28.38-27.35-42.79-40.77-6.71-6.26-13.89-11.98-20.85-17.97-1.41-1.21-2.77-2.49-4.48-4.03.39-1.48.39-2.43.85-3,6.44-7.95,12.95-15.87,19.49-23.75.46-.56,1.36-.77,2.28-1.25.9.41,2.03.66,2.77,1.31,31.36,27.74,62.46,55.72,90.84,86.58,44.59,48.44,83.61,101.05,117.36,157.55,31.1,52.07,56.54,106.82,76.92,163.92,6.49,18.23,12.43,36.61,17.75,55.15Z"/>
    </g>
    <g id="Lens-2" data-name="Lens">
      <path class="cls-9" d="m1775.37,1394.36c-12.28,36.36-27.57,72.08-45.85,107.22-7.33,14.08-15.66,18.62-31.56,17.82-132.59-6.77-265.22-12.54-397.85-18.69-8.49-.39-16.95-1.49-25.43-2.26-.48-1.66-.95-3.31-1.43-4.97,35.66-33.02,71.33-66.05,107.04-99.12h395.08Z"/>
      <path class="cls-20" d="m931.57,837.78c-176.66,164.09-349.32,324.45-526.03,488.56-5.18-34.79-11.03-64.84-13.95-95.17-13.62-141.17,16.2-273.76,80.86-399.19,4.9-9.51,9.18-17.3,23.08-16.56,139.45,7.36,278.94,13.95,418.42,20.79,3.66.18,7.3.64,17.62,1.57Z"/>
      <path class="cls-21" d="m1459.1,573.15c-11.2,121.97-21.64,244.02-32.26,366.04h-47.92c-142.91-156.33-284.06-310.75-427.08-467.16,60.61-12.56,117.56-17.26,174.96-15.08,111.66,4.25,216.7,33.08,315.11,86.35,13.03,7.07,18.64,14.2,17.2,29.85Z"/>
      <path class="cls-7" d="m1248.81,1863.26c-33.44,4.46-61.77,9.67-90.33,11.77-141.64,10.36-275.07-18.21-400.03-86.07-10.62-5.77-16.94-11.43-15.69-25.48,12.03-135.37,23.3-270.8,34.82-406.21.1-1.05,1.07-2.03,3.54-6.61,155.48,170.4,309.75,339.49,467.69,512.59Z"/>
      <path class="cls-5" d="m1774.45,939.2h-306.58c10.34-120.04,20.69-240.01,31.12-361.09,16.8,12.56,30.74,22.36,44.02,33,108.89,87.27,186.22,196.48,231.45,328.09Z"/>
      <path class="cls-11" d="m762.5,1052.2c-19.95,235.48-39.59,467.08-59.48,701.66-6.43-3.89-10.97-6.23-15.07-9.16-127.59-91.56-215.35-212.3-264.93-361.16-3.39-10.16-2.57-16.93,5.54-24.43,108.43-100.17,216.58-200.61,324.85-300.96,1.31-1.21,3.03-2.02,9.08-5.95Z"/>
      <path class="cls-4" d="m1202.64,808.81c-234.24-10.79-463.39-21.33-696.74-32.08,9-12.82,15.3-22.43,22.21-31.57,94.68-124.87,216.04-211.88,366.09-258.42,10.28-3.18,16.84-1.95,24.2,6.2,90.66,100.43,181.65,200.55,272.5,300.8,3.13,3.46,5.77,7.38,11.74,15.08Z"/>
      <path class="cls-6" d="m1693.63,1558.71c-43.36,65.35-93.63,119.3-152.25,165.51-71.13,56.08-150.19,97.22-236.89,123.18-6.41,1.93-17.69-.46-21.98-5.16-93.46-102.13-186.25-204.86-279.14-307.52-1.15-1.26-1.79-2.98-4.98-8.51,232.34,10.85,461.92,21.59,695.25,32.49Z"/>
    </g>
    <g id="Circuit-2" data-name="Circuit">
      <path class="cls-2" d="m2718.88,1283.91c-15.36,10.87-36.97,9.95-49.35-4.85-.79-.95-1.46-2.07-2.49-2.75-1.18-.79-2.62-1.44-4.07-1.69-1.71-.3-3.52-.11-5.28-.11h-603.45c-11.46,0-22.95-.15-34.43-.23l-1.08,7.77v.02c20.87,29.74,39.92,60.44,60.07,90.58,9.98,14.93,19.77,30,29.62,45.02,1.34,2.03,2.79,4.07,3.77,6.26,1.57,3.51,4.31,4.66,8.33,4.36,2.33-.18,4.67-.21,7.02-.21h2.92c13.85-.02,27.72-.02,41.58-.02,44.21-.05,88.41-.07,132.63-.08,3.52,0,7.08,0,10.59.28,3.44.28,5.82-.62,7.72-3.36,4.15-5.95,10.48-9.54,17.61-12.05,7.52-2.64,15.28-2.64,22.62.1,10.46,3.9,17.94,10.71,21.82,20.38,1.69,4.21,1.71,8.59,1.07,12.93-2.38,16.2-16.51,26.35-31.61,27.49-13.28,1-23.71-3.38-31.28-13.16-1.52-1.98-3.34-3.05-6.03-2.98-1.77.05-3.54-.02-5.3-.02-49.64.02-99.28.02-148.92.03-14.98,0-29.97.02-44.95.02h-21.41c-.89-1.13-1.69-2.07-2.34-3.07-23.18-35.31-46.33-70.66-69.51-105.97-4.57-6.95-9.18-13.87-13.79-20.8v-.02c-4.31-6.51-8.62-13-12.92-19.53-5.93-9.03-11.75-18.15-17.64-27.21-.89-1.36-1.77-2.74-2.74-4.07-1.16-1.57-2.79-2.49-4.98-2.46-1.33.02-2.64,0-3.97,0h-164.1c-98.3,0-196.58-.02-294.88-.02h-175.6c-3.08,0-6.2-.2-9.26,0-9.38.59-16.57-7.92-15.92-14.87.44-4.67,2.18-8.41,6.02-11.44,2.54-2.03,5.39-3.31,8.95-3.28,4.64.03,9.26-.18,13.9-.18,34.56,0,69.15-.02,103.72-.02h40.38c19.98,0,39.97,0,59.97.02h.07s.02-.02.03,0h63.44c67.67.02,135.37.02,203.06.02,39.23.02,78.46.02,117.71.02,32.33.02,64.67.02,97.02.02,108.69.02,217.38.03,326.08.03,93.4.02,186.79-.02,280.19-.05,9.26,0,18.54-.13,27.82-.21,1.54-.02,3.08-.07,4.62-.13,2.59-.1,4.52-1.05,6.13-2.98,8.43-10.13,20.05-13.71,33.71-12.84,3.56.23,6.89,1.2,10.02,2.82,7.46,3.87,13.59,8.9,16.69,16.28,5.16,12.26,2.67,27.56-9.59,36.23Z"/>
      <path class="cls-2" d="m2418.31,1173.09c-9.84,18.77-39.43,28.31-59.9,5.92-.56-.61-1-1.31-1.49-1.95-1.23-1.57-2.87-2.41-5.03-2.39-1.77.02-3.54-.03-5.3-.03-177.97-.03-355.93-.05-533.89-.05-31.13-.02-62.28-.02-93.41-.02-16.77,0-33.56.05-50.33-.02-5.74-.03-11.48-.39-17.21-.52-1.43-.03-2.87.21-4.69.36.49,2.66,1.84,4.43,3.07,6.26,8.25,12.18,16.46,24.38,24.71,36.58,1.26,1.85,2.62,3.66,3.8,5.56.82,1.34,1.39,2.82,2.28,4.62-1.2.31-1.95.69-2.72.69-10.38.05-20.75.02-31.13.1-2.95.02-4.82-.89-6.33-3.31-6.77-10.89-13.79-21.66-20.72-32.46-2.71-4.2-5.69-8.25-8.1-12.56-.16-.26-.31-.54-.46-.82-1.82-3.39-4.33-4.59-8.33-4.38-3.97.21-7.95.05-11.92.05-11.15,0-22.28-.02-33.43-.02-36.74-.02-73.46-.03-110.2-.05-38.02-.02-76.04-.03-114.05-.07-3.95,0-7.97-.05-11.87-.56-7.98-1.05-12.48-5.8-12.54-13.02-.02-2.13.25-4.38.93-6.41,1.93-5.69,6.26-9,13.02-9.31,3.97-.18,7.95-.15,11.92-.15,38.38-.02,76.76-.02,115.15-.02,22.56-.02,45.12-.02,67.67-.02h72.07c19.85,0,39.71,0,59.58-.02,22.79.02,45.59,0,68.4,0,1.52,0,3.05-.13,4.49-.2,10.48-15.97,20.56-31.3,30.62-46.66,12.95-19.79,25.85-39.62,38.85-59.41,2.48-3.77,4.98-7.51,7.51-11.25,3.64-5.41,7.31-10.82,10.89-16.26,9.97-15.18,19.89-30.38,29.62-45.69,1.9-3,4.2-4.08,7.93-4.07,28.94.15,57.85.16,86.77.23,1.72.02,3.44.16,5.61.28-.33,1.26-.3,2.34-.85,3.05-5.93,7.64-11.44,15.51-16.18,23.8-.79,1.38-2,2.1-3.64,2.23-1.54.11-3.08.11-4.62.11-15.67-.08-31.36-.16-47.03-.25-1.1,0-2.21-.05-3.31.03-2.07.18-3.82.9-4.95,2.57-.57.85-1.15,1.69-1.71,2.54-15.54,23.74-31.05,47.48-46.59,71.22-1.52,2.33-3.07,4.67-4.59,7-12.57,19.18-25.15,38.33-37.74,57.49-2.13,3.25-4.44,6.38-6.57,9.62-.62.95-.93,2.07-1.52,3.44,1.57.11,2.62.26,3.69.26h47.94l370.68-.05c54.76-.02,109.53-.07,164.28-.08.66,0,1.33-.07,1.98,0,4.11.49,7.12-.77,9.59-3.9,3.54-4.44,8.51-7.39,14.02-9.67,3.26-1.34,6.62-2.15,10.23-2.1,1.33.02,2.66-.02,3.97-.02,25.13.16,41.82,23.26,31.1,43.71Z"/>
      <path class="cls-2" d="m2564.2,1085.58c-12.41.18-22.41-3.72-29.71-12.77-2.02-2.51-4.48-3.67-7.8-3.62-1.33.02-2.66-.02-3.98-.02-165.92.02-331.86.02-497.8.03-12.02-.02-24.02-.02-36.03,0h-125.22c-8.16,0-16.34.21-24.51.26-2.15,0-4.38.41-6.72-.8.18-.84.13-1.3.36-1.57,5.71-6.61,9.43-14.28,14.31-21.35.59-.84,1.11-1.7,1.64-2.57,1.51-2.51,3.8-3.74,6.98-3.74,3.97,0,7.95-.15,11.92-.13,12.59.07,25.16.18,37.76.28.66.02,1.33,0,1.98.02,3.2.15,5.26-1.05,6.85-3.66,5.18-8.51,10.52-16.95,15.98-25.31,11.49-17.59,23.12-35.12,34.67-52.67,1.87-2.82,3.72-5.64,5.59-8.46,6.9-10.48,13.82-20.94,20.69-31.43,2.16-3.3,4.33-6.61,6.49-9.9,8.57-13.08,17.13-26.16,25.71-39.26,2.11-3.23,4.34-6.43,6.46-9.66,1.23-1.87,2.95-2.93,5.34-3,2.66-.07,5.3-.07,7.95-.07,66.67,0,133.37-.02,200.04-.02,2.64,0,5.31-.16,7.93,0,3.64.23,6.21-.82,8.44-3.57,1.89-2.36,4.61-4.25,7.13-6.15,9.1-6.92,19.82-8.2,30.53-4.87,13.72,4.26,22.31,13.15,24.12,26.54,1.62,12-6.36,26.39-20.82,32.2-14.72,5.9-32.46,1.48-41.74-10.3-2.15-2.72-4.52-4.15-8.18-4.02-3.1.1-6.18.07-9.28.07-61.59-.05-123.2-.1-184.79-.16-1.11,0-2.21.02-3.31,0-1.97-.02-3.36.87-4.39,2.25-.74.98-1.36,2.03-2.03,3.07-8.77,13.53-17.46,27.08-26.31,40.56-4.2,6.39-8.43,12.79-12.64,19.18-7.15,10.8-14.33,21.61-21.48,32.41-2.34,3.54-4.69,7.08-7.03,10.62-8.71,13.15-17.39,26.28-26.07,39.44-1.2,1.82-2.87,3.52-2.8,6.28,1.39.13,2.61.38,3.82.33,5.07-.18,10.13-.66,15.2-.66h16.49c12.05-.02,24.1-.02,36.15-.02,155.55-.05,311.09-.07,466.66-.08,12.13,0,24.28.03,36.41.26,3.89.08,6.72-.95,9.23-3.61,2.98-3.18,6.53-5.87,10.48-8.13,21.75-12.51,46.48,1.1,52.02,19.31,4.57,15.05-8.08,38.08-32.67,38.46Z"/>
      <path class="cls-2" d="m1768.99,1039.74c-.48,1.48-.61,2.66-1.21,3.57-5.69,8.46-11.46,16.89-17.49,25.74-1.26.08-2.98.31-4.72.3h-14.33c-19.69-.02-39.39-.02-59.1-.03-39.98-.03-79.99-.07-119.99-.08-31.84-.02-63.66-.02-95.5-.03-41.92,0-83.82,0-125.74-.02-2.2,0-4.43-.18-6.61,0-7.79.69-12.26-3.9-14.08-8.77-2.67-7.15-1.67-12.31,3.9-16.85,2.38-1.93,4.93-3.33,8.18-3.52,3.97-.25,7.92-.64,11.89-.69,9.26-.13,18.54-.1,27.82-.1,32.41,0,64.82,0,97.23.02,77.31,0,154.64,0,231.98.02,4.52,0,9.03.02,13.56.03,16.46.03,32.9.11,49.36.15,3.16.02,6.36-.13,9.53-.15.36-.02.7-.02,1.07-.02,1.25,0,2.49.25,4.26.44Z"/>
      <path class="cls-2" d="m1917.23,1361.32c-4.07,5.48-9.57,9.38-15.62,11.67-9.98,3.84-21.46,3.31-30.36-1.69-5.13-2.87-9.89-5.93-12.89-10.79-1.18-1.89-2.93-2.9-5.43-2.72-.66.05-1.33.02-1.98.02-21.44.03-42.89.05-64.31.08-14.74.02-29.48.03-44.21.07-3.3,0-6.61.3-9.89.61-1.98.18-3.48-.38-4.54-1.82-1.59-2.13-3.23-4.26-4.62-6.49-11.87-18.98-24.21-37.71-37.02-56.2-.43-.61-.54-1.38-.92-2.43,1.21-.2,2.02-.44,2.8-.43,9.49.05,18.98.34,28.44.11,4.84-.11,7.92,1.49,10.23,5.12,5.46,8.59,11.05,17.12,16.59,25.66,3.69,5.69,2.49,6.15,11.87,5.93,11.25-.26,22.51-.13,33.76-.15,1.74,0,3.46,0,5.2-.02,15.9-.02,31.84-.05,47.74-.05,3.75,0,7.51-.03,11.25.26,3.39.25,5.69-.61,7.87-3.15,4.67-5.43,10.77-9.25,18.23-11.21,9.05-2.41,17.54-.75,25.54,3.07,3.46,1.66,6.39,3.59,8.84,5.84,5.67,5.18,8.62,11.9,8.92,20.1.23,6.74-1.28,12.98-5.48,18.61Z"/>
      <path class="cls-2" d="m2104.38,1004.33c-13.46,4.9-31.18,2-40.36-9.66-2.18-2.75-4.7-3.82-8.31-3.79-13.43.16-26.84.23-40.26.3-1.56.02-3.13.02-4.69.03-2.34,0-4.77.49-7.95-.75,2.23-3,4.13-5.39,5.85-7.89,1.44-2.13,2.79-4.31,4.15-6.48.25-.41.51-.82.77-1.23,1.98-3.08,4.16-6.08,5.92-9.26,1.71-3.1,4.31-4.1,7.98-3.98,9.03.26,18.07.2,27.08.57,3.26.13,5.38-.61,7.13-3.08,4.82-6.71,11.44-11.31,20.02-13.75,16.56-4.72,37.64,3.39,42.99,21.51,4.84,16.39-3.61,31.39-20.31,37.46Z"/>
    </g>
    <g id="AI-2" data-name="AI">
      <g>
        <path class="cls-17" d="m1287.19,1048.49c-.03-18.77-14.22-33.47-32.88-33.5-79.4-.17-158.8-.2-238.22,0-18.77.06-32.69,14.7-32.69,33.52-.08,78.92-.08,157.82-.03,236.74,0,19.25,14.28,33.3,33.47,33.3,39.36.03,78.73.03,118.09.03v-.08c39.14,0,78.28.06,117.42-.03,21.2-.03,34.98-13.55,35.01-34.64.03-78.42-.03-156.9-.17-235.34Zm-58.47,237.64c-31.21.03-62.41.03-93.62.03s-62.47,0-93.67-.03c-16.51-.03-25.59-9.11-25.59-25.56-.03-62.64-.03-125.27-.03-187.88,0-15.51,9.16-25.2,24.7-25.23,63.11-.17,126.25-.17,189.36-.03,15.84.03,24.98,9.69,24.98,25.7.03,62.16.03,124.32.06,186.51,0,17.35-9,26.48-26.18,26.48Z"/>
        <path class="cls-17" d="m1045.31,996.05c.13,4.21-.98,6.08-5.67,5.95-19.18-.54-15.92,3.15-16.18-15.77-.15-11.07-.08-22.15-.07-33.21.02-5.16.95-9.95,6.2-12.57,7-3.49,14.95,1.16,15.46,9.54.48,7.87.1,15.8.1,23.71h.1c0,7.46-.16,14.92.07,22.36Z"/>
        <path class="cls-17" d="m1112.21,1001.61h-21.43v-26.48c.02-8.33-.15-16.67.11-24.98.21-6.3,5-10.93,10.66-10.97,5.23-.02,10.44,4.05,10.54,9.48.31,17.51.11,35.02.11,52.95Z"/>
        <path class="cls-17" d="m1179.84,1001.53q-21.66,1.72-21.64-18.18c.02-11.05-.11-22.1.15-33.15.16-6.52,4.66-10.89,10.51-11h.21c5.3,0,10.54,4.28,10.64,10,.33,17.31.13,34.62.13,52.33Z"/>
        <path class="cls-17" d="m1246.68,1001.58h-21.25c0-17.85-.28-35.35.16-52.82.15-5.9,4.79-9.34,10.56-9.41,5.43-.08,10.21,2.92,10.36,8.62.46,17.72.16,35.48.16,53.61Z"/>
        <path class="cls-17" d="m1045.15,1384.11c-.54,6.43-5.16,10.44-11.26,10.23-5.62-.18-10.31-4.43-10.38-10.44-.23-16.92-.08-33.85-.08-51.48h21.84v38.84c0,4.28.23,8.59-.11,12.85Z"/>
        <path class="cls-17" d="m969.32,1189.81v21.28c-17.64,0-34.95.16-52.25-.1-5.57-.08-9.38-4.84-9.44-10.39-.08-5.84,3.89-10.62,9.82-10.71,17.1-.25,34.21-.08,51.87-.08Z"/>
        <path class="cls-17" d="m969.52,1055.33v21.3c-18,0-35.56.25-53.1-.13-5.43-.13-9.2-5.52-8.84-10.98.39-6.03,3.72-9.98,9.75-10.08,17.13-.3,34.26-.1,52.18-.1Z"/>
        <path class="cls-17" d="m1112.18,1384.54c-.1,6.02-3.97,9.44-10.08,9.71-6.1.26-10.74-2.98-10.92-8.77-.57-17.54-.21-35.12-.21-53.05h21.31c0,17.82.2,34.97-.1,52.12Z"/>
        <path class="cls-17" d="m1246.88,1382.59c-.11,7.48-3.75,11.56-10.23,11.67-6.8.11-11.13-4.07-11.25-11.56-.2-12.62-.07-25.25-.07-37.87v-12.41h21.44c0,11.98-.02,23.64,0,35.3,0,4.95.16,9.92.1,14.87Z"/>
        <path class="cls-17" d="m1179.61,1384.82c-.15,6.07-5.31,9.82-11.15,9.46-6.05-.38-9.95-3.71-10.05-9.77-.26-17.13-.08-34.26-.08-52.07h21.43c0,17.74.28,35.07-.15,52.38Z"/>
        <path class="cls-17" d="m969.88,1278.57h-21.62c-9.93-.03-19.89.18-29.8-.18-6.69-.23-10.84-4.72-10.87-10.62-.02-6.21,4.36-10.67,11.34-10.75,15.13-.18,30.28.03,45.41-.08,3.9-.03,5.85,1.11,5.61,5.39-.28,4.93-.07,9.89-.07,16.25Z"/>
        <path class="cls-17" d="m969.59,1140.38c-.1,1.28-2.84,3.33-4.39,3.34-15.59.25-31.2.26-46.79.05-6.69-.1-10.77-4.41-10.79-10.51,0-5.9,4.07-10.49,10.72-10.84,8.34-.46,16.72-.2,25.08-.21,8.52-.02,17.07,0,26.38,0,0,6.59.26,12.41-.21,18.16Z"/>
        <path class="cls-17" d="m1228.77,1059.55c-31.21-.03-62.38,0-93.59,0s-62.41-.03-93.62,0c-10.17,0-13.69,3.3-13.69,13.16-.03,62.61-.03,125.19.03,187.8,0,10.25,3.24,13.61,13.27,13.61,62.86.08,125.69.08,188.55,0,9.64,0,12.85-3.41,12.85-13.21.03-62.61.03-125.19,0-187.77,0-10.56-3.13-13.58-13.8-13.58Zm-86.69,161.17c-1.96-.2-4.33-2.91-5.25-5.03-6.37-14.61-6.26-14.64-22.49-14.64-7.46,0-14.95.2-22.38-.06-4.22-.14-6.48,1.2-8.07,5.31-5.7,14.86-5.87,14.81-21.68,14.7h-7.63c.87-3.32,1.29-5.7,2.1-7.93,11.48-31.32,23.1-62.58,34.39-93.95,1.68-4.58,3.94-6.76,8.8-6.2,2.23.25,4.53.03,6.79.06,17.15.03,17.21.03,22.96,15.78,10.25,28.16,20.51,56.35,30.7,84.51.75,2.07,1.4,4.19,2.51,7.68-7.79,0-14.33.42-20.76-.22Zm62.78-66.63c0,4.39.03,8.74.03,13.13,0,3.94,0,7.88-.03,11.79-.03,11.65-.06,23.3.11,34.92.03.5,0,1.01-.03,1.48,0,.2,0,.42-.03.61-.11,1.54-.47,2.68-1.23,3.52-.11.14-.25.25-.39.36-.11.11-.25.2-.39.28s-.34.2-.5.25c-.22.11-.48.22-.75.31-.42.14-.92.22-1.48.28-.56.08-1.2.11-1.87.11-19.58,0-19.58.22-19.58-19.47v-80.52c0-1.17,0-2.21.03-3.07,0-.22.03-.45.03-.64.06-1.09.17-1.93.39-2.57.08-.2.17-.36.25-.53.03-.08.08-.14.14-.22.06-.08.08-.17.17-.22l.17-.17c.14-.14.28-.25.45-.34,1.15-.64,3.13-.67,6.51-.64.2.03.42.03.64.03.31,0,.61,0,.89.03,3.32.08,6.65.42,9.92.06,2.04-.22,3.49-.06,4.5.53.11.06.2.11.28.17.03,0,.06.03.11.08.08.03.14.11.22.2.11.08.2.14.28.25.14.17.28.34.39.53.08.11.14.28.22.42.08.17.14.39.22.59.06.17.11.36.17.56.22,1.01.31,2.26.28,3.69-.2,11.4-.17,22.8-.11,34.22Z"/>
        <path class="cls-17" d="m1108.64,1132.37c6.05,17.24,11.52,32.84,17.18,48.95h-34.41c5.71-16.2,11.12-31.58,17.24-48.95Z"/>
      </g>
    </g>
    <path class="cls-1" d="m1651.74,1174.02c-1.43-.03-2.87.21-4.69.36.49,2.66,1.84,4.43,3.07,6.26,8.25,12.18,16.46,24.38,24.71,36.58,1.26,1.85,2.62,3.66,3.8,5.56.82,1.34,1.39,2.82,2.28,4.62-1.2.31-1.95.69-2.72.69-10.38.05-20.75.02-31.13.1-2.95.02-4.82-.89-6.33-3.31-6.77-10.89-13.79-21.66-20.72-32.46-2.71-4.2-5.69-8.25-8.1-12.56-.16-.26-.31-.54-.46-.82-1.82-3.39-4.33-4.59-8.33-4.38-3.97.21-7.95.05-11.92.05-11.15,0-22.28-.02-33.43-.02-36.74-.02-73.46-.03-110.2-.05-38.02-.02-76.04-.03-114.05-.07-3.95,0-7.97-.05-11.87-.56-7.98-1.05-12.48-5.8-12.54-13.02-.02-2.13.25-4.38.93-6.41,1.93-5.69,6.26-9,13.02-9.31,3.97-.18,7.95-.15,11.92-.15,38.38-.02,76.76-.02,115.15-.02,22.56-.02,45.12-.02,67.67-.02h72.07c19.85,0,39.71,0,59.58-.02,22.79.02,45.59,0,68.4,0,1.52,0,3.05-.13,4.49-.2,10.48-15.97,20.56-31.3,30.62-46.66,12.95-19.79,25.85-39.62,38.85-59.41,2.48-3.77,4.98-7.51,7.51-11.25,3.64-5.41,7.31-10.82,10.89-16.26,9.97-15.18,19.89-30.38,29.62-45.69,1.9-3,4.2-4.08,7.93-4.07,28.94.15,57.85.16,86.77.23,1.72.02,3.44.16,5.61.28-.33,1.26-.3,2.34-.85,3.05-5.93,7.64-11.44,15.51-16.18,23.8-.79,1.38-2,2.1-3.64,2.23-1.54.11-3.08.11-4.62.11-15.67-.08-31.36-.16-47.03-.25-1.1,0-2.21-.05-3.31.03-2.07.18-3.82.9-4.95,2.57-.57.85-1.15,1.69-1.71,2.54-15.54,23.74-31.05,47.48-46.59,71.22-1.52,2.33-3.07,4.67-4.59,7-12.57,19.18-25.15,38.33-37.74,57.49-2.13,3.25-4.44,6.38-6.57,9.62-.62.95-.93,2.07-1.52,3.44,1.57.11,2.62.26,3.69.26h47.94l370.68-.05c54.76-.02,109.53-.07,164.28-.08.66,0,1.33-.07,1.98,0,4.11.49,7.12-.77,9.59-3.9,3.54-4.44,8.51-7.39,14.02-9.67,3.26-1.34,6.62-2.15,10.23-2.1,1.33.02,2.66-.02,3.97-.02,25.13.16,41.82,23.26,31.1,43.71-9.84,18.77-39.43,28.31-59.9,5.92-.56-.61-1-1.31-1.49-1.95-1.23-1.57-2.87-2.41-5.03-2.39-1.77.02-3.54-.03-5.3-.03-177.97-.03-355.93-.05-533.89-.05-31.13-.02-62.28-.02-93.41-.02-16.77,0-33.56.05-50.33-.02-5.74-.03-11.48-.39-17.21-.52Z"/>
    <path class="cls-1" d="m2043.12,856.18c66.67,0,133.37-.02,200.04-.02,2.64,0,5.31-.16,7.93,0,3.64.23,6.21-.82,8.44-3.57,1.89-2.36,4.61-4.25,7.13-6.15,9.1-6.92,19.82-8.2,30.53-4.87,13.72,4.26,22.31,13.15,24.12,26.54,1.62,12-6.36,26.39-20.82,32.2-14.72,5.9-32.46,1.48-41.74-10.3-2.15-2.72-4.52-4.15-8.18-4.02-3.1.1-6.18.07-9.28.07-61.59-.05-123.2-.1-184.79-.16-1.11,0-2.21.02-3.31,0-1.97-.02-3.36.87-4.39,2.25-.74.98-1.36,2.03-2.03,3.07-8.77,13.53-17.46,27.08-26.31,40.56-4.2,6.39-8.43,12.79-12.64,19.18-7.15,10.8-14.33,21.61-21.48,32.41-2.34,3.54-4.69,7.08-7.03,10.62-8.71,13.15-17.39,26.28-26.07,39.44-1.2,1.82-2.87,3.52-2.8,6.28,1.39.13,2.61.38,3.82.33,5.07-.18,10.13-.66,15.2-.66h16.49c12.05-.02,24.1-.02,36.15-.02,155.55-.05,311.09-.07,466.66-.08,12.13,0,24.28.03,36.41.26,3.89.08,6.72-.95,9.23-3.61,2.98-3.18,6.53-5.87,10.48-8.13,21.75-12.51,46.48,1.1,52.02,19.31,4.57,15.05-8.08,38.08-32.67,38.46-12.41.18-22.41-3.72-29.71-12.77-2.02-2.51-4.48-3.67-7.8-3.62-1.33.02-2.66-.02-3.98-.02-165.92.02-331.86.02-497.8.03-12.02-.02-24.02-.02-36.03,0h-125.22c-8.16,0-16.34.21-24.51.26-2.15,0-4.38.41-6.72-.8.18-.84.13-1.3.36-1.57,5.71-6.61,9.43-14.28,14.31-21.35.59-.84,1.11-1.7,1.64-2.57,1.51-2.51,3.8-3.74,6.98-3.74,3.97,0,7.95-.15,11.92-.13,12.59.07,25.16.18,37.76.28.66.02,1.33,0,1.98.02,3.2.15,5.26-1.05,6.85-3.66,5.18-8.51,10.52-16.95,15.98-25.31,11.49-17.59,23.12-35.12,34.67-52.67,1.87-2.82,3.72-5.64,5.59-8.46,6.9-10.48,13.82-20.94,20.69-31.43,2.16-3.3,4.33-6.61,6.49-9.9,8.57-13.08,17.13-26.16,25.71-39.26,2.11-3.23,4.34-6.43,6.46-9.66,1.23-1.87,2.95-2.93,5.34-3,2.66-.07,5.3-.07,7.95-.07Z"/>
    <path class="cls-1" d="m2718.88,1283.91c-15.36,10.87-36.97,9.95-49.35-4.85-.79-.95-1.46-2.07-2.49-2.75-1.18-.79-2.62-1.44-4.07-1.69-1.71-.3-3.52-.11-5.28-.11h-603.45c-11.46,0-22.95-.15-34.43-.23l-1.08,7.77v.02c20.87,29.74,39.92,60.44,60.07,90.58,9.98,14.93,19.77,30,29.62,45.02,1.34,2.03,2.79,4.07,3.77,6.26,1.57,3.51,4.31,4.66,8.33,4.36,2.33-.18,4.67-.21,7.02-.21h2.92c13.85-.02,27.72-.02,41.58-.02,44.21-.05,88.41-.07,132.63-.08,3.52,0,7.08,0,10.59.28,3.44.28,5.82-.62,7.72-3.36,4.15-5.95,10.48-9.54,17.61-12.05,7.52-2.64,15.28-2.64,22.62.1,10.46,3.9,17.94,10.71,21.82,20.38,1.69,4.21,1.71,8.59,1.07,12.93-2.38,16.2-16.51,26.35-31.61,27.49-13.28,1-23.71-3.38-31.28-13.16-1.52-1.98-3.34-3.05-6.03-2.98-1.77.05-3.54-.02-5.3-.02-49.64.02-99.28.02-148.92.03-14.98,0-29.97.02-44.95.02h-21.41c-.89-1.13-1.69-2.07-2.34-3.07-23.18-35.31-46.33-70.66-69.51-105.97-4.57-6.95-9.18-13.87-13.79-20.8v-.02c-4.31-6.51-8.62-13-12.92-19.53-5.93-9.03-11.75-18.15-17.64-27.21-.89-1.36-1.77-2.74-2.74-4.07-1.16-1.57-2.79-2.49-4.98-2.46-1.33.02-2.64,0-3.97,0h-164.1c-98.3,0-196.58-.02-294.88-.02h-175.6c-3.08,0-6.2-.2-9.26,0-9.38.59-16.57-7.92-15.92-14.87.44-4.67,2.18-8.41,6.02-11.44,2.54-2.03,5.39-3.31,8.95-3.28,4.64.03,9.26-.18,13.9-.18,34.56,0,69.15-.02,103.72-.02h40.38c19.98,0,39.97,0,59.97.02h.07s.02-.02.03,0h63.44c67.67.02,135.37.02,203.06.02,39.23.02,78.46.02,117.71.02,32.33.02,64.67.02,97.02.02,108.69.02,217.38.03,326.08.03,93.4.02,186.79-.02,280.19-.05,9.26,0,18.54-.13,27.82-.21,1.54-.02,3.08-.07,4.62-.13,2.59-.1,4.52-1.05,6.13-2.98,8.43-10.13,20.05-13.71,33.71-12.84,3.56.23,6.89,1.2,10.02,2.82,7.46,3.87,13.59,8.9,16.69,16.28,5.16,12.26,2.67,27.56-9.59,36.23Z"/>
  </g>
</svg>